<?xml version="1.0" encoding="UTF-8" standalone="no"?>
<!-- Created with Inkscape (http://www.inkscape.org/) -->

<svg
   xmlns:dc="http://purl.org/dc/elements/1.1/"
   xmlns:cc="http://creativecommons.org/ns#"
   xmlns:rdf="http://www.w3.org/1999/02/22-rdf-syntax-ns#"
   xmlns:svg="http://www.w3.org/2000/svg"
   xmlns="http://www.w3.org/2000/svg"
   xmlns:sodipodi="http://sodipodi.sourceforge.net/DTD/sodipodi-0.dtd"
   xmlns:inkscape="http://www.inkscape.org/namespaces/inkscape"
   width="802.82861"
   height="786.82806"
   id="svg2"
   version="1.1"
   inkscape:version="0.48.5 r10040"
   sodipodi:docname="aufsteller.svg">
  <sodipodi:namedview
     id="base"
     pagecolor="#ffffff"
     bordercolor="#666666"
     borderopacity="1.0"
     inkscape:pageopacity="0.0"
     inkscape:pageshadow="2"
     inkscape:zoom="0.5"
     inkscape:cx="846.61458"
     inkscape:cy="269.5712"
     inkscape:document-units="mm"
     inkscape:current-layer="layer3"
     showgrid="false"
     inkscape:window-width="1920"
     inkscape:window-height="1036"
     inkscape:window-x="0"
     inkscape:window-y="44"
     inkscape:window-maximized="0"
     inkscape:object-nodes="true"
     inkscape:snap-midpoints="true"
     inkscape:snap-object-midpoints="true"
     inkscape:snap-smooth-nodes="false"
     showguides="true"
     inkscape:guide-bbox="true"
     inkscape:object-paths="true"
     inkscape:snap-intersection-paths="true"
     inkscape:snap-nodes="true"
     fit-margin-top="0"
     fit-margin-left="0"
     fit-margin-right="0"
     fit-margin-bottom="0">
    <sodipodi:guide
       orientation="0,1"
       position="1910.5246,769.31334"
       id="guide4510" />
    <sodipodi:guide
       orientation="0,1"
       position="1889.2648,608.34824"
       id="guide4516" />
    <sodipodi:guide
       orientation="0,1"
       position="1777.2647,166.3125"
       id="guide4518" />
    <sodipodi:guide
       orientation="1,0"
       position="1910.5295,219.43745"
       id="guide4637" />
  </sodipodi:namedview>
  <defs
     id="defs4">
    <inkscape:path-effect
       effect="spiro"
       id="path-effect4528"
       is_visible="true" />
    <inkscape:path-effect
       effect="spiro"
       id="path-effect4454"
       is_visible="true" />
    <inkscape:path-effect
       effect="spiro"
       id="path-effect4446"
       is_visible="true" />
    <inkscape:path-effect
       effect="spiro"
       id="path-effect4442"
       is_visible="true" />
  </defs>
  <metadata
     id="metadata7">
    <rdf:RDF>
      <cc:Work
         rdf:about="">
        <dc:format>image/svg+xml</dc:format>
        <dc:type
           rdf:resource="http://purl.org/dc/dcmitype/StillImage" />
        <dc:title></dc:title>
      </cc:Work>
    </rdf:RDF>
  </metadata>
  <g
     id="layer1"
     inkscape:groupmode="layer"
     inkscape:label="Layer 1"
     style="display:none"
     transform="translate(1328.921,-83.265631)">
    <path
       style="fill:#808000;fill-opacity:0.37037036;stroke:none"
       d="m 249.0625,-61.5625 -5.28125,12.59375 -1.5,9.09375 0.25,3.375 -1.15625,0.125 -13.5625,1.8125 -0.625,-3.3125 -3.8125,-8.375 -8.34375,-10.84375 -8.46875,2.3125 -1.875,13.5 0.90625,9.15625 1.125,3.25 -1.0625,0.4375 -12.65625,5.21875 -1.46875,-3.09375 -5.8125,-7.09375 -10.84375,-8.21875 -7.6875,4.34375 1.75,13.5625 3.21875,8.59375 1.9375,2.84375 -0.90625,0.6875 L 158.28125,-1.25 156.09375,-3.84375 148.65625,-9.1875 136,-14.375 129.75,-8.15625 134.96875,4.5 l 5.3125,7.46875 2.625,2.21875 -0.71875,0.90625 -4.375,8.84375 L 135.03125,22 126.4375,18.8125 112.875,17.03125 108.5,24.6875 l 8.25,10.875 7.0625,5.8125 3.15625,1.53125 L 126.5,43.9375 121.21875,56.59375 118,55.4375 l -9.125,-0.90625 -13.5,1.8125 -2.3125,8.53125 10.84375,8.375 8.34375,3.75 3.40625,0.65625 -0.1875,1.15625 -1.8125,13.625 -3.40625,-0.3125 -9.0625,1.53125 -12.59375,5.25 0,8.78125 12.59375,5.28125 9.0625,1.5 3.46875,-0.21875 0.125,1.15625 1.75,13.5625 -3.34375,0.59375 -8.34375,3.8125 -10.84375,8.375 2.3125,8.46875 13.5,1.875 9.125,-0.96875 3.28125,-1.15625 0.4375,1.15625 5.1875,12.65625 -3.09375,1.4375 -7.0625,5.8125 -8.25,10.84375 2.25,3.9375 c -6.28454,6.06742 -11.492032,11.78924 -15.78125,17.25 6.6e-4,-0.0831 0,-0.16672 0,-0.25 0,-17.0157 -13.7968,-30.8125 -30.8125,-30.8125 -17.0157,0 -30.8125,13.7968 -30.8125,30.8125 0,17.0157 13.7968,30.8125 30.8125,30.8125 5.95428,0 11.506482,-1.66862 16.21875,-4.59375 -3.609591,11.28796 -3.441038,21.66255 -2.0625,30.5 1.838051,11.78326 4.893912,20.98524 4.625,30.75 -0.252496,9.16865 -2.923928,19.55927 -13.53125,34.5 -3.56889,0.0455 -7.175044,0.0937 -10.84375,0.0937 l 0,42.3125 -21.25,0 0,53.125 21.25,0 0,177.1875 -21.25,0 0,53.15625 21.25,0 0,53.125 0,10 389.78125,0 0,-10 0,-141.71875 21.25,0 0,-53.15625 0,-53.15625 -21.25,0 0,-31.71875 c -112.26865,0 -76.7583,-55.21766 -177.21875,-87.40625 l 1.0625,-18.28125 26.375,-17.34375 10,13.875 11.09375,-7.875 -7.15625,-5.34375 -4.65625,2.5 -4.8125,-6.09375 34.46875,-22.65625 -0.25,1.875 2.375,1.375 3.3125,-2.53125 1.78125,-2.1875 0.46875,-0.9375 0.3125,0.125 3.875,1.625 -0.34375,0.96875 -0.28125,2.8125 0.5625,4.125 2.59375,0.71875 2.5625,-3.3125 1.1875,-2.5625 0.1875,-1.03125 0.34375,0.0312 4.15625,0.5625 -0.0625,1.03125 0.4375,2.8125 1.625,3.8125 2.6875,0 1.625,-3.8125 0.46875,-2.8125 -0.0937,-1.03125 0.34375,-0.0625 4.15625,-0.53125 0.1875,1.03125 1.1875,2.5625 2.5625,3.3125 2.59375,-0.71875 0.5625,-4.125 -0.28125,-2.8125 -0.34375,-1 0.34375,-0.125 3.875,-1.59375 0.4375,0.9375 1.78125,2.1875 3.3125,2.53125 2.375,-1.375 -0.5625,-4.125 -1,-2.625 -0.59375,-0.875 0.3125,-0.21875 3.34375,-2.5625 0.65625,0.8125 2.28125,1.625 3.875,1.59375 1.90625,-1.90625 -1.59375,-3.875 -1.625,-2.28125 -0.8125,-0.6875 0.25,-0.28125 2.5625,-3.34375 0.84375,0.59375 2.625,1 4.15625,0.53125 1.34375,-2.34375 -2.53125,-3.3125 -2.1875,-1.78125 -0.9375,-0.46875 0.15625,-0.3125 1.59375,-3.875 1,0.34375 2.78125,0.28125 4.15625,-0.5625 0.6875,-2.59375 -3.3125,-2.5625 -2.5625,-1.1875 -1.03125,-0.1875 0.0625,-0.34375 0.53125,-4.1875 1.0625,0.0937 2.78125,-0.4375 3.84375,-1.625 0,-2.6875 -3.84375,-1.625 -2.78125,-0.46875 -1.0625,0.0937 -0.0312,-0.375 -0.5625,-4.15625 1.03125,-0.1875 2.5625,-1.15625 3.3125,-2.5625 -0.6875,-2.625 -4.15625,-0.53125 -2.78125,0.28125 -1,0.34375 -0.15625,-0.34375 -1.59375,-3.875 0.9375,-0.4375 2.1875,-1.78125 2.53125,-3.34375 -1.34375,-2.34375 -4.15625,0.53125 -2.625,1 -0.875,0.59375 -0.21875,-0.28125 -2.5625,-3.34375 0.8125,-0.65625 1.625,-2.28125 1.59375,-3.875 -1.90625,-1.90625 -3.875,1.59375 -2.28125,1.625 -0.6875,0.78125 -0.28125,-0.21875 -3.34375,-2.5625 0.59375,-0.84375 1,-2.625 0.5625,-4.15625 -2.375,-1.34375 -3.3125,2.53125 -1.78125,2.15625 L 382.1875,195.5 381.875,195.34375 378,193.75 l 0.34375,-1 0.28125,-2.78125 -0.40625,-3 2.25,0.84375 13.5,1.75 4.4375,-7.6875 -8.25,-10.84375 -7.125,-5.8125 -3.09375,-1.5 0.46875,-1.03125 5.28125,-12.65625 3.21875,1.09375 9.125,0.96875 13.5,-1.875 2.3125,-8.46875 L 403,133.375 l -8.34375,-3.8125 -3.40625,-0.65625 0.1875,-1.09375 3.8125,-11.625 3.40625,0.28125 9.0625,-1.5 12.59375,-5.28125 0,-8.78125 -12.59375,-5.25 -9.0625,-1.53125 -3.46875,0.25 -0.125,-1.15625 -3.75,-15.5625 L 394.65625,77 403,73.25 l 10.84375,-8.375 -2.3125,-8.53125 -13.5,-1.8125 -9.125,0.90625 L 385.625,56.59375 385.1875,55.5 380,42.84375 l 3.03125,-1.46875 7.125,-5.8125 8.25,-10.875 -4.4375,-7.65625 -13.5,1.78125 L 371.875,22 369.03125,23.9375 368.375,23.03125 360,12.125 362.625,9.96875 367.9375,2.5 l 5.21875,-12.65625 -6.25,-6.21875 -12.65625,5.1875 -7.4375,5.34375 -2.25,2.59375 -0.90625,-0.71875 -10.90625,-8.34375 1.9375,-2.8125 3.28125,-8.59375 1.75,-13.5625 -7.6875,-4.34375 -10.84375,8.21875 -5.8125,7.09375 -1.5,3.15625 -1.03125,-0.5 -12.65625,-5.25 1.125,-3.21875 0.90625,-9.15625 -1.875,-13.5 -8.46875,-2.3125 -8.34375,10.84375 -3.8125,8.375 -0.6875,3.375 -1.09375,-0.1875 -13.625,-1.8125 0.3125,-3.375 -1.5,-9.09375 -5.28125,-12.59375 -8.78125,0 z m 120.03125,244.1875 2.78125,1.9375 3.125,1.1875 -2.09375,2.6875 -1.1875,2.5625 -0.1875,1.03125 -0.34375,-0.0625 -4.15625,-0.5625 0.0937,-1.03125 -0.46875,-2.78125 -0.5,-1.15625 2.9375,-3.8125 z m -227.8125,4.53125 5.625,7.25 -2.625,2.25 -5.3125,7.46875 L 133.75,216.78125 140,223 l 12.65625,-5.1875 7.4375,-5.34375 2.25,-2.59375 0.90625,0.71875 10.84375,8.34375 -1.9375,2.78125 -3.21875,8.625 -1.75,13.5 7.6875,4.40625 10.84375,-8.21875 5.8125,-7.15625 1.5,-3.09375 1.03125,0.5 12.65625,5.25 -1.125,3.21875 -0.90625,9.09375 1.875,13.5625 8.46875,2.28125 8.34375,-10.8125 3.8125,-8.375 0.6875,-3.375 1.09375,0.15625 6.8125,0.90625 -26.96875,80.6875 c -11.34758,-1.65979 -33.72209,-2.11175 -47.1875,-1.96875 2.52539,-7.27014 4.095,-14.14339 4.40625,-20.78125 0.47815,-10.19737 -2.75382,-20.6108 -10.59375,-27.3125 -7.83993,-6.7017 -18.50203,-9.28053 -31.3125,-9.4375 -9.34779,-0.11454 -10.12528,1.08945 -22.65625,3.59375 -0.81748,-3.82587 -1.635021,-7.37728 -2.15625,-10.71875 -1.466743,-9.4029 -1.569228,-16.98013 4.75,-28.65625 5.51208,-10.18474 16.59519,-23.3768 37.21875,-40.4375 z m 172.625,42.625 1.125,2.34375 -1.84375,0.78125 0,2.6875 3.84375,1.625 2.15625,0.34375 2,2.46875 0.28125,2.0625 -1.03125,0.1875 -2.5625,1.1875 -3.3125,2.53125 0.6875,2.625 4.15625,0.5625 2.78125,-0.28125 1,-0.375 0.15625,0.375 1.59375,3.875 -0.96875,0.4375 -2.15625,1.78125 -2.53125,3.3125 1.34375,2.34375 4.15625,-0.53125 2.625,-1 0.875,-0.59375 0.21875,0.3125 2.5625,3.3125 -0.8125,0.6875 -1.625,2.28125 -0.3125,0.78125 -54.96875,32.46875 3.34375,-56.875 2.40625,-0.3125 0.625,3.3125 3.8125,8.375 8.34375,10.8125 8.46875,-2.28125 1.875,-13.5625 -0.90625,-9.09375 -1.125,-3.28125 1.0625,-0.40625 12.65625,-5.28125 z m -190.03125,54.875 c 9.96443,0.12209 15.38791,2.29334 17.75,4.3125 2.36209,2.01916 3.46319,4.2767 3.1875,10.15625 -0.25218,5.37806 -2.32044,13.1747 -6.28125,22.46875 -16.40605,0.72789 -24.27892,1.83405 -43.78125,2.5625 6.50645,-12.29947 9.16403,-23.35095 9.4375,-33.28125 0.0256,-0.92825 0.04,-1.84789 0.0312,-2.75 12.17951,-2.48292 12.08823,-3.46875 19.65625,-3.46875 z m -12.15625,397.875 88.59375,0 0,21.25 -88.59375,0 0,-21.25 z m 194.90625,0 88.5625,0 0,21.25 -88.5625,0 0,-21.25 z"
       id="rect2985"
       inkscape:connector-curvature="0" />
    <path
       style="fill:#808000;fill-opacity:0.37037036;stroke:none"
       d="m 560.34375,314.03125 c 0,0 21.37999,202.13143 0,291.1875 -2.42217,10.08927 -7.90027,16.77449 -14.90625,22.125 -0.22802,-3.21751 -0.65295,-6.12782 -1.28125,-8.75 6.73579,-4.9346 11.67956,-14.98785 14.90625,-29.96875 -8.72684,3.11412 -14.58638,10.40006 -18.40625,20.65625 -1.08047,-1.97729 -2.30823,-3.72525 -3.625,-5.28125 -1.36573,-1.61385 -2.77438,-3.01172 -4.15625,-4.28125 4.28347,-0.55944 7.59375,-4.21958 7.59375,-8.65625 0,-4.82411 -3.89463,-8.71875 -8.71875,-8.71875 -1.03277,0 -2.04909,0.17095 -2.96875,0.5 0.59834,-0.7737 1.08666,-1.64139 1.40625,-2.625 1.49075,-4.588 -1.03699,-9.54052 -5.625,-11.03125 -0.86025,-0.27951 -1.73482,-0.42669 -2.59375,-0.4375 -3.72202,-0.0468 -7.19502,2.33476 -8.40625,6.0625 -0.32092,0.98771 -0.43703,1.98723 -0.40625,2.96875 -0.55234,-0.81339 -1.2525,-1.54505 -2.09375,-2.15625 -3.90279,-2.83554 -9.35196,-1.96529 -12.1875,1.9375 -2.83554,3.90279 -1.99654,9.35196 1.90625,12.1875 0.84286,0.61237 1.77258,1.03865 2.71875,1.3125 -0.94617,0.27385 -1.87589,0.73137 -2.71875,1.34375 -3.90279,2.83554 -4.74179,8.28472 -1.90625,12.1875 2.83554,3.90277 8.28471,4.77304 12.1875,1.9375 0.84125,-0.61122 1.54141,-1.34293 2.09375,-2.15625 -0.0308,0.98146 0.0853,1.98104 0.40625,2.96875 1.49074,4.588 6.41199,7.08454 11,5.59375 1.57359,-0.51127 2.89893,-1.42707 3.90625,-2.59375 0.14572,0.16191 0.29748,0.33454 0.4375,0.5 3.68426,4.35362 6.46745,10.11804 6.09375,23.1875 -21.59572,12.12959 -49.19528,21.36763 -54.0625,66.5 L 677,726.34375 c 8.13805,-5.76663 -4.40056,-21.48359 1.21875,-27.09375 l 0.28125,0.53125 8.15625,8.59375 14.84375,9.71875 9.40625,-6.375 -3.375,-17.3125 -5,-10.8125 -2.78125,-3.5 1.125,-0.96875 13.34375,-11.75 3.0625,3.1875 10.09375,6.25 16.75,5.5 7.5625,-8.5625 -7.875,-15.875 -7.53125,-9.15625 -3.59375,-2.6875 0.875,-1.1875 9.78125,-14.8125 3.78125,2.25 11.34375,3.375 17.65625,1.0625 5.0625,-10.28125 -11.75,-13.28125 -9.625,-6.875 -4.15625,-1.65625 0.5,-1.40625 5.65625,-16.8125 4.25,1.25 11.84375,0.28125 17.375,-3.59375 2.09375,-11.1875 -14.6875,-9.84375 -11.09375,-4.125 -4.5,-0.53125 0.1875,-1.4375 1.09375,-17.6875 4.4375,0 11.53125,-2.71875 15.78125,-7.90625 -0.8125,-11.4375 -16.75,-5.625 -11.8125,-1.09375 -4.40625,0.625 -0.21875,-1.0625 c 0.95535,-9.32968 -10.0161,-19.77799 -25.65625,-23.96875 -12.604,-3.37723 -24.61816,-1.71089 -30.8125,3.53125 -7.09688,-1.39316 -26.43146,-4.46271 -40.6875,0.1875 -8.85993,2.89004 -23.19652,12.32678 -34,22.53125 -6.39211,6.01425 -11.66707,7.31416 -13.15625,-2.90625 -4.24719,-28.38931 2.3125,-57.52846 2.3125,-93.40625 l 0,-52.125 c 0,-14.5807 -9.18625,-50.125 -63.78125,-50.125 z M 691.6875,495.8125 c 5.72483,-0.0832 10.518,0.6928 13.75,1.4375 -0.2307,3.43992 2.08421,7.22786 2.84375,10.0625 1.10434,4.33352 1.96603,8.68646 2.59375,13.03125 -8.12143,-1.51622 -23.4076,-3.75757 -35.46875,-1.875 C 658.23115,521.14953 617,542.03125 617,542.03125 c 0,0 40.10379,-37.61233 58.5625,-43.59375 5.76835,-1.86919 11.26843,-2.55439 16.125,-2.625 z m -2.65625,32 c 8.2297,-0.0529 16.73346,1.00289 22.84375,1.96875 0.31097,4.63292 0.35953,9.26059 0.15625,13.84375 l -91.0625,8.28125 c 0,0 40.6532,-20.57319 57.8125,-23.3125 3.21737,-0.51362 6.71739,-0.75856 10.25,-0.78125 z m 22.0625,26.5625 c -0.93047,7.06734 -2.46711,13.99698 -4.5625,20.75 L 622.25,562.4375 711.09375,554.375 z m -90.28125,18.5625 82.0625,12.375 c -2.56922,6.30624 -5.63253,12.40746 -9.1875,18.21875 L 620.8125,572.9375 z M 622.5,585.21875 687.625,612.5 c -14.31013,25.20612 -40.08574,48.75 -63.5,48.75 l 0,-64.96875 c 0,-4.20599 -0.64626,-7.80029 -1.625,-11.0625 z m -105.1875,1.6875 c 2.29306,0 4.125,1.86319 4.125,4.15625 0,2.29306 -1.83194,4.15625 -4.125,4.15625 -2.29306,0 -4.15625,-1.86319 -4.15625,-4.15625 0,-2.29306 1.86319,-4.15625 4.15625,-4.15625 z"
       id="rect3825"
       inkscape:connector-curvature="0" />
    <rect
       y="455.75"
       x="581.60852"
       height="106.3125"
       width="21.25"
       id="rect3819"
       style="fill:#808000;fill-opacity:0.37037036;stroke:none" />
    <rect
       style="fill:#808000;fill-opacity:0.37037036;stroke:none"
       id="rect3821"
       width="21.25"
       height="53.125"
       x="581.60852"
       y="367.1875" />
    <rect
       y="597.53125"
       x="581.60852"
       height="53.125"
       width="21.25"
       id="rect3823"
       style="fill:#808000;fill-opacity:0.37037036;stroke:none" />
    <path
       style="fill:#808000;fill-opacity:0.37037036;stroke:none"
       d="m 111.71875,748.25 0,21.25 c -3.60214,3.73055 -8.55457,6.12083 -13.71875,6.59375 -5.039085,0.46146 -10.164493,-0.82927 -15.15625,0 -3.44837,0.57287 -6.661393,2.12843 -9.59375,4.03125 -5.15819,3.34717 -11.355335,6.79814 -14.6875,11.96875 -0.625858,0.97116 0.54517,2.98184 0,4 l -10.625,0 0,15.9375 -10.625,0 0,21.25 10.625,0 0,15.9375 10.625,0 c 0.710034,0.33311 -0.685689,5.62092 0,6 9.453952,5.22661 18.597595,9.77797 20.75,20.375 0.578932,2.85028 0.820719,5.73857 1.375,8.59375 0.554281,2.85518 1.435331,5.71778 3.15625,8.0625 1.522686,2.07463 3.670186,3.67659 6.0625,4.625 2.392314,0.94841 5.008761,1.25542 7.5625,0.9375 2.833,-0.35269 5.53866,-1.45189 8.03125,-2.84375 2.49259,-1.39186 4.79923,-3.09438 7.125,-4.75 7.67935,-5.46663 15.93215,-10.66753 25.25,-12.09375 4.60763,-0.70526 9.30775,-0.45841 13.96875,-0.40625 4.661,0.0522 9.40162,-0.11774 13.8125,-1.625 2.07165,-0.70791 4.03493,-1.70552 6.0625,-2.53125 3.38064,-1.37677 6.98218,-2.29863 10.625,-2.53125 6.29077,-0.40172 12.67082,1.31756 17.9375,4.78125 2.30109,4.7874 3.42717,10.12875 3.25,15.4375 -0.0762,2.28387 -0.36306,4.53147 -0.5,6.8125 -0.13694,2.28103 -0.11931,4.61288 0.5,6.8125 0.70497,2.50386 2.17332,4.77441 4.0625,6.5625 2.66684,2.52413 6.16155,4.06508 9.75,4.84375 3.58845,0.77867 7.26761,0.84196 10.9375,0.71875 7.75742,-0.26044 15.60226,-1.3257 23.25,0 7.89866,1.36919 15.24435,5.24246 23.21875,6.0625 1.17545,0.12088 2.39371,0.17389 3.5625,0 2.36861,-0.3524 4.5387,-1.65861 6.03125,-3.53125 1.81339,-2.27518 2.55862,-5.20533 3.46875,-7.96875 0.45506,-1.38171 0.95258,-2.74457 1.6875,-4 0.73492,-1.25543 1.71318,-2.40185 2.9375,-3.1875 1.93857,-1.24399 4.31994,-1.50544 6.5625,-2.03125 1.65021,-0.38692 3.28261,-0.94352 4.71875,-1.84375 1.43614,-0.90023 2.68469,-2.13948 3.375,-3.6875 0.87571,-1.96377 0.79782,-4.22953 0.40625,-6.34375 -0.39157,-2.11422 -1.09846,-4.18922 -1.4375,-6.3125 -0.4446,-2.78433 -0.26293,-5.6383 0.53125,-8.34375 2.53308,-4.37238 7.13375,-7.52406 12.125,-8.3125 3.32761,-0.52565 6.75186,-0.0317 9.96875,0.96875 3.21689,1.00047 6.24736,2.50625 9.21875,4.09375 2.65776,1.41994 5.26994,2.89921 8.0625,4.03125 3.22638,1.3079 6.66655,2.13223 10.125,2.53125 3.68459,0.42511 7.38692,0.37212 11.09375,0.5 4.21165,0.14529 8.44272,0.51728 12.625,0 4.19014,-0.51825 8.22513,-1.91357 12.125,-3.53125 6.68043,-2.77106 13.05795,-6.20309 19.6875,-9.09375 2.59664,-1.1322 5.28075,-2.19739 8.09375,-2.53125 3.21288,-0.38132 6.4609,0.19177 9.59375,1 2.85001,0.73526 5.71331,1.6727 8.65625,1.625 1.47147,-0.0239 2.9567,-0.29613 4.28125,-0.9375 1.03051,-2.90029 5.5773,-3.90321 6.09375,-6.9375 0.2103,-1.9154 -1.04671,-8.38217 0,-10 l 10.625,0 0,-15.9375 -10.625,0 0,-21.25 10.625,0 0,-15.9375 -10.625,0 c -0.86669,-0.71599 0.86567,-7.28321 0,-8 -4.72923,-3.91587 -12.0425,-1.9932 -16.75,-5.9375 -0.67412,-0.56483 -1.34605,-1.13071 -2.09375,-1.59375 -0.7477,-0.46304 -1.59604,-0.82871 -2.46875,-0.9375 -1.25619,-0.15659 -2.49964,0.21862 -3.6875,0.65625 -1.18786,0.43763 -2.36992,0.92853 -3.625,1.09375 -1.35036,0.17777 -2.76049,-0.0589 -3.96875,-0.6875 -1.20826,-0.62865 -2.20367,-1.64151 -2.84375,-2.84375 -0.27538,-0.51723 -0.48458,-1.05718 -0.78125,-1.5625 -0.29667,-0.50532 -0.71051,-0.99003 -1.25,-1.21875 -0.39655,-0.16812 -0.82321,-0.192 -1.25,-0.25 -1.72757,-0.23479 -3.34159,-0.99004 -4.84375,-1.875 -1.50216,-0.88496 -2.93028,-1.89756 -4.5,-2.65625 -1.25538,-0.60677 -2.58401,-1.06656 -3.78125,-1.78125 -0.1621,-0.0968 -0.35009,-0.1969 -0.53125,-0.25 -0.16402,-0.0481 -0.33749,-0.0529 -0.5,0 -0.10809,0.0352 -0.20086,0.10583 -0.28125,0.1875 l 0,-20.1875 -88.5625,0 0,21.25 -106.3125,0 0,-21.25 -88.59375,0 z m 115.15625,127.5625 53.125,0 0,21.25 -53.125,0 0,-21.25 z"
       id="rect3835"
       inkscape:connector-curvature="0" />
    <rect
       transform="matrix(0,-1,1,0,0,0)"
       y="608.19415"
       x="-703.76569"
       height="53.125"
       width="21.25"
       id="rect3853"
       style="fill:#808000;fill-opacity:0.37037036;stroke:none" />
    <path
       inkscape:connector-curvature="0"
       id="path4301"
       d="m 633.82756,1198.0077 6.8124,-16.3125 1.9688,-11.75 -0.3125,-4.375 1.5,-0.1563 17.5313,-2.375 0.7812,4.3125 4.9375,10.8125 10.8437,14.0313 10.9688,-2.9688 2.4375,-17.4687 -1.1875,-11.8438 -1.5,-4.2187 1.4062,-0.5625 16.4063,-6.75 1.875,4 7.5313,9.1875 14.0312,10.6562 9.9375,-5.6562 -2.2813,-17.5625 -4.1562,-11.125 -2.5,-3.6875 1.1875,-0.8438 14.0937,-10.8125 2.8438,3.3438 9.625,6.9062 16.375,6.75 8.0938,-8.0625 -6.75,-16.4062 -6.9063,-9.625 -3.375,-2.9063 0.9375,-1.1875 10.8438,-14.0312 3.5937,2.5312 11.125,4.1563 17.5625,2.25 5.625,-9.875 -10.65625,-14.0938 -9.15625,-7.5312 -4.09375,-1.9688 0.65625,-1.3125 6.8125,-16.375 4.15625,1.4688 11.8125,1.1875 17.5,-2.3438 2.96875,-11.0625 -14.03125,-10.8125 -10.8125,-4.875 -4.375,-0.8438 0.21875,-1.5 2.34375,-17.62492 4.40625,0.375 11.75,-1.9375 16.3125,-6.84375 0,-5.625 -88.1563,0 c 0,69.17857 -56.07129,125.24997 -125.25,125.24997 l 0,88.0938 5.6876,0 z"
       style="fill:#808000;fill-opacity:0.37037036;stroke:none" />
    <path
       style="fill:#808000;fill-opacity:0.37037036;stroke:none"
       d="m 182.96875,974.5625 c 0,69.8246 -56.61293,126.4375 -126.4375,126.4375 l -10.625,0 0,15.9375 -10.625,0 0,21.25 10.625,0 0,15.9375 10.625,0 c 22.69157,28.3744 16.715872,1.3902 33.21875,-1.0938 l 0.78125,4.3126 4.9375,10.8124 10.8125,14.0313 10.96875,-2.9687 2.4375,-17.5626 -1.1875,-11.75 -1.5,-4.25 1.4375,-0.5312 16.375,-6.8125 1.875,3.9687 7.53125,9.25 14.03125,10.6876 9.9375,-5.75 -2.25,-17.4688 -4.25,-11.125 -2.5,-3.6875 1.25,-0.8437 14.09375,-10.8438 2.84375,3.375 9.625,6.9062 16.375,6.75 8.09375,-8.0937 -6.75,-16.375 -6.90625,-9.625 -3.375,-2.9063 0.96875,-1.1874 10.8125,-14.0938 3.59375,2.5 11.125,4.2188 17.5,2.2812 5.71875,-9.9375 -10.65625,-14.0313 -9.25,-7.5312 -4,-1.9688 0.625,-1.3124 6.8125,-16.4063 4.15625,1.4063 11.84375,1.2812 7.75,-1.0938 7.75,1.0938 11.84375,-1.2812 4.21875,-1.4688 0.5625,1.4688 6.75,16.4062 -4,1.875 -9.1875,7.5312 -10.65625,14.0313 5.65625,9.9375 17.53125,-2.2812 11.15625,-4.2188 3.65625,-2.5 0.875,1.25 10.8125,14.0312 -3.375,2.9063 -6.875,9.625 -6.75,16.375 8.0625,8.0937 16.375,-6.75 9.65625,-6.9062 2.90625,-3.375 1.15625,0.9375 14.03125,10.8437 -2.5,3.5938 -4.15625,11.125 -2.28125,17.4688 9.96875,5.75 14.03125,-10.6876 7.53125,-9.25 1.9375,-3.9687 1.34375,0.625 16.375,6.8125 -1.46875,4.1562 -1.1875,11.75 2.4375,17.5626 10.96875,2.9687 10.8125,-14.0313 4.9375,-10.8124 0.875,-4.375 c 13.92651,-24.1214 16.79298,29.356 33.09375,1.1562 l 10.625,0 0,-15.9375 -10.625,0 0,-21.25 10.625,0 0,-15.9375 -10.625,0 C 376.48793,1101 319.875,1044.3871 319.875,974.5625 l -136.90625,0 z m 68.46875,12.90625 9.5625,1.59375 4.46875,-0.3125 0.15625,1.5 2.25,17.5312 -4.28125,0.7813 -10.84375,4.9687 -1.3125,1.0313 -1.34375,-1.0313 -10.8125,-4.9374 -4.375,-0.875 0.21875,-1.4063 2.34375,-17.65625 4.40625,0.40625 9.5625,-1.59375 z"
       id="rect3869"
       inkscape:connector-curvature="0" />
    <rect
       transform="matrix(0,-1,1,0,0,0)"
       y="224.87033"
       x="-974.56097"
       height="53.125"
       width="21.25"
       id="rect3871"
       style="fill:#808000;fill-opacity:0.37037036;stroke:none" />
    <path
       style="fill:#808000;fill-opacity:0.37037036;stroke:none"
       d="m 163.0625,347.75 -1.75,4.1875 -0.5,3.03125 0.0937,1.125 -0.375,0.0312 -4.53125,0.625 -0.1875,-1.125 -1.28125,-2.78125 -2.78125,-3.59375 -2.8125,0.78125 -0.625,4.46875 0.3125,3.03125 0.375,1.09375 -0.34375,0.15625 -4.21875,1.71875 -0.46875,-1.03125 -1.9375,-2.34375 -3.625,-2.75 -2.53125,1.46875 0.5625,4.5 1.0625,2.84375 0.65625,0.96875 -0.3125,0.21875 -3.625,2.78125 -0.71875,-0.875 -2.46875,-1.78125 -4.21875,-1.71875 -2.0625,2.0625 1.71875,4.21875 1.78125,2.46875 0.875,0.75 -0.25,0.3125 -2.78125,3.59375 -0.90625,-0.65625 -2.875,-1.0625 -4.5,-0.59375 -1.4375,2.5625 2.71875,3.625 2.34375,1.90625 1.0625,0.53125 -0.15625,0.3125 -1.75,4.21875 -1.0625,-0.375 -3.0625,-0.3125 -4.46875,0.59375 -0.78125,2.84375 3.625,2.78125 2.75,1.25 1.15625,0.21875 -0.0625,0.375 -0.625,4.53125 -1.125,-0.0937 -3,0.5 -4.1875,1.75 0,2.9375 4.1875,1.75 3,0.5 1.15625,-0.0937 0.0312,0.375 0.59375,4.53125 -1.125,0.1875 -2.75,1.28125 -3.625,2.78125 0.78125,2.8125 4.46875,0.625 3.0625,-0.34375 1.0625,-0.375 0.15625,0.375 1.71875,4.21875 -1.03125,0.5 -2.34375,1.90625 -2.71875,3.625 1.4375,2.53125 4.5,-0.5625 2.875,-1.09375 0.9375,-0.65625 0.21875,0.34375 2.78125,3.59375 -0.875,0.75 -1.78125,2.46875 -1.71875,4.21875 2.0625,2.0625 4.21875,-1.71875 2.46875,-1.78125 0.75,-0.875 0.3125,0.25 3.59375,2.78125 -0.65625,0.90625 -1.0625,2.875 -0.5625,4.5 2.53125,1.46875 3.625,-2.75 1.9375,-2.375 0.5,-1.03125 0.34375,0.15625 4.1875,1.75 -0.375,1.0625 -0.3125,3.03125 0.625,4.5 2.8125,0.78125 2.78125,-3.59375 1.28125,-2.78125 0.21875,-1.125 0.375,0.0625 4.5,0.59375 -0.0937,1.125 0.5,3.03125 1.75,4.15625 2.9375,0 1.75,-4.15625 0.5,-3.03125 -0.0937,-1.15625 0.40625,-0.0312 4.5,-0.59375 0.1875,1.125 1.28125,2.78125 2.78125,3.59375 2.8125,-0.78125 0.625,-4.5 -0.3125,-3.03125 -0.375,-1.0625 0.375,-0.15625 4.1875,-1.75 0.5,1.03125 1.9375,2.375 3.59375,2.75 2.5625,-1.46875 -0.59375,-4.5 -1.09375,-2.875 -0.625,-0.9375 0.3125,-0.21875 3.625,-2.78125 0.71875,0.875 2.46875,1.78125 3.53125,1.4375 1.6875,-0.71875 0.53125,-0.53125 -0.25,-0.21875 -3.625,-2.78125 -1.875,-1.4375 0.625,-2.28125 0.78125,-2.84375 0.59375,-2.28125 2.34375,-0.3125 4.5,-0.59375 0.40625,-0.0625 0.40625,0.0312 0,-0.0312 -0.3125,-0.25 -0.25,-0.34375 -2.75,-3.625 -1.40625,-1.875 1.15625,-2.03125 1.46875,-2.53125 1.15625,-2.0625 2.375,0.3125 4.5,0.59375 0.40625,0.0312 0.375,0.15625 0.125,0.0312 -0.0625,-0.0625 -0.25,-0.34375 -0.15625,-0.375 -1.625,-3.90625 -0.96875,-0.4375 -1.125,-0.21875 0.0625,-0.34375 0.59375,-4.53125 1.125,0.0937 2.71875,-0.4375 0.34375,-0.34375 1.65625,-1.6875 1.53125,0.625 0.96875,-0.40625 0,-2.9375 -4.1875,-1.75 -3.03125,-0.5 -1.15625,0.0937 -0.0312,-0.40625 -0.59375,-4.5 1.125,-0.21875 2.78125,-1.25 3.59375,-2.78125 -0.78125,-2.8125 -4.46875,-0.625 -3.03125,0.3125 -1.09375,0.375 -0.15625,-0.375 -1.71875,-4.1875 1,-0.5 2.375,-1.90625 2.75,-3.625 -1.46875,-2.53125 -4.5,0.5625 -2.84375,1.0625 -0.96875,0.65625 -0.21875,-0.3125 -2.78125,-3.625 0.875,-0.71875 1.78125,-2.46875 1.71875,-4.21875 -2.0625,-2.0625 -4.21875,1.71875 -2.46875,1.78125 -0.75,0.875 -0.3125,-0.25 -3.59375,-2.78125 0.625,-0.9375 1.09375,-2.84375 0.59375,-4.5 -2.5625,-1.46875 -3.59375,2.75 -1.9375,2.34375 -0.5,1.0625 -0.34375,-0.15625 -4.21875,-1.75 0.375,-1.0625 0.3125,-3.0625 -0.625,-4.46875 -2.8125,-0.78125 -2.78125,3.59375 -1.28125,2.78125 -0.21875,1.125 -0.34375,-0.0625 -4.53125,-0.59375 0.0937,-1.125 -0.5,-3.03125 -1.75,-4.1875 -2.9375,0 z m 46.46875,76.96875 0.40625,0.53125 0.46875,0.375 -0.4375,-0.5625 -0.4375,-0.34375 z"
       id="path3979"
       inkscape:connector-curvature="0" />
    <path
       inkscape:connector-curvature="0"
       id="path3981"
       d="m 253.92701,392.97851 -1.75108,4.1865 -0.50318,3.01911 0.0805,1.12714 -0.38241,0.0403 -4.50856,0.60383 -0.20127,-1.10701 -1.26801,-2.77759 -2.77758,-3.60281 -2.81785,0.76485 -0.62395,4.48841 0.30191,3.03924 0.38241,1.08688 -0.36228,0.14089 -4.20663,1.73096 -0.48307,-1.0265 -1.93223,-2.35491 -3.6028,-2.73732 -2.55618,1.44917 0.58369,4.50854 1.06676,2.8581 0.64406,0.94599 -0.30191,0.2214 -3.62293,2.77758 -0.72459,-0.86548 -2.47567,-1.77121 -4.20663,-1.73096 -2.07312,2.07312 1.73095,4.20663 1.77122,2.47568 0.86548,0.74471 -0.24153,0.30191 -2.77759,3.60281 -0.92586,-0.64408 -2.85809,-1.06675 -4.50854,-0.58369 -1.44918,2.53605 2.73733,3.62294 2.35491,1.93223 1.04663,0.50318 -0.16102,0.34217 -1.75109,4.20663 -1.06675,-0.38242 -3.03924,-0.30191 -4.48842,0.60382 -0.76484,2.83797 3.60281,2.77758 2.77758,1.2479 1.12714,0.2214 -0.0603,0.38242 -0.60382,4.52866 -1.12714,-0.10061 -3.01911,0.50316 -4.18651,1.75112 0,2.91844 4.18651,1.75112 3.01911,0.50315 1.14726,-0.0805 0.0403,0.38245 0.58369,4.50855 -1.107,0.20127 -2.77759,1.26799 -3.60281,2.77758 0.76484,2.81785 4.48842,0.62397 3.03924,-0.32204 1.08688,-0.38244 0.14089,0.38244 1.73096,4.20663 -1.0265,0.48305 -2.3549,1.93222 -2.73733,3.60286 1.44917,2.55615 4.50854,-0.58369 2.8581,-1.08687 0.94598,-0.64408 0.2214,0.32204 2.77759,3.60278 -0.86548,0.74475 -1.77121,2.47565 -1.73096,4.20665 2.07312,2.0731 4.20664,-1.73095 2.47567,-1.77122 0.74471,-0.86546 0.30191,0.24154 3.60282,2.77758 -0.64408,0.92586 -1.06677,2.85809 -0.58368,4.4884 2.55617,1.46933 3.60281,-2.73734 1.93223,-2.37504 0.5032,-1.02652 0.34215,0.16101 4.20665,1.75113 -0.38244,1.06671 -0.30191,3.01912 0.62396,4.50854 2.81784,0.76485 2.77758,-3.60278 1.26804,-2.77766 0.22138,-1.12713 0.36231,0.0606 4.52866,0.60382 -0.10063,1.12713 0.50318,3.01912 1.75108,4.16641 2.91849,0 1.75108,-4.16641 0.50318,-3.01912 -0.0805,-1.14729 0.38241,-0.0399 4.50854,-0.58374 0.20127,1.10698 1.26804,2.77766 2.77757,3.60278 2.81785,-0.76486 0.62395,-4.50853 -0.30191,-3.01912 -0.38244,-1.08687 0.36231,-0.14087 4.20663,-1.75111 0.48305,1.02652 1.93225,2.37503 3.6028,2.73735 2.55618,-1.46934 -0.58368,-4.48837 -1.0869,-2.85811 -0.64408,-0.94602 0.32204,-0.22136 3.62294,-2.7776 0.72459,0.86546 2.47567,1.77122 4.20662,1.73095 2.07313,-2.0731 -1.73095,-4.20666 -1.77122,-2.47565 -0.86546,-0.74474 0.24151,-0.30189 2.77758,-3.62293 0.92586,0.64408 2.85811,1.08687 4.4884,0.58369 1.46931,-2.55616 -2.73731,-3.60285 -2.37504,-1.93223 -1.02652,-0.50316 0.16103,-0.3422 1.75108,-4.20659 1.06676,0.36228 3.03923,0.32204 4.48843,-0.62398 0.76483,-2.81785 -3.60281,-2.77758 -2.77758,-1.26798 -1.12714,-0.22143 0.0604,-0.36231 0.60382,-4.52863 1.12713,0.10061 3.01912,-0.50316 4.18652,-1.75111 0,-2.91845 -4.18652,-1.75111 -3.01912,-0.50316 -1.14724,0.0805 -0.0403,-0.38245 -0.58369,-4.50853 1.107,-0.2214 2.77758,-1.2479 3.60281,-2.77759 -0.76485,-2.83796 -4.4884,-0.60382 -3.03926,0.30191 -1.08687,0.38242 -0.1409,-0.3623 -1.73095,-4.20663 1.00637,-0.48306 2.37503,-1.93223 2.73734,-3.62293 -1.4693,-2.53606 -4.48843,0.5837 -2.85809,1.06675 -0.94599,0.64408 -0.22138,-0.30191 -2.77761,-3.62294 0.86549,-0.72459 1.77122,-2.47567 1.73095,-4.20663 -2.07313,-2.07312 -4.20662,1.73096 -2.47567,1.77121 -0.74472,0.86548 -0.30191,-0.24153 -3.62294,-2.77759 0.64408,-0.92586 1.08687,-2.85809 0.58371,-4.50854 -2.55617,-1.44918 -3.60283,2.73733 -1.93223,2.35491 -0.50318,1.04663 -0.34218,-0.16102 -4.20662,-1.75109 0.38241,-1.06675 0.30194,-3.03924 -0.62395,-4.48842 -2.81785,-0.76484 -2.77758,3.60281 -1.26804,2.77758 -0.2214,1.12714 -0.36228,-0.0603 -4.52867,-0.60382 0.10064,-1.12714 -0.50319,-3.01911 -1.75108,-4.1865 -2.91849,0 z"
       style="fill:#808000;fill-opacity:0.37037036;stroke:none" />
    <path
       style="font-size:medium;font-style:normal;font-variant:normal;font-weight:normal;font-stretch:normal;text-indent:0;text-align:start;text-decoration:none;line-height:normal;letter-spacing:normal;word-spacing:normal;text-transform:none;direction:ltr;block-progression:tb;writing-mode:lr-tb;text-anchor:start;baseline-shift:baseline;color:#000000;fill:#000000;fill-opacity:1;stroke:none;stroke-width:17.71653557;marker:none;visibility:visible;display:inline;overflow:visible;enable-background:accumulate;font-family:Sans;-inkscape-font-specification:Sans"
       d="m 132.29267,445.56377 -0.0625,0.0625 -0.34375,0.25 -0.375,0.15625 -2.90625,1.1875 c -3.09878,10.52719 -3.07468,18.40562 -2.07392,27.90498 2.42954,23.06166 14.88377,41.92089 27.34375,59.03125 12.45998,17.11036 21.02947,28.83227 26.28125,44.125 0.97016,2.82503 1.72973,5.61629 2.25,8.4375 3.81574,-7.27282 7.96482,-13.90161 12.25,-20.03125 -7.28387,-17.17324 -15.58571,-28.03554 -26.4375,-42.9375 -12.05806,-16.55844 -22.20045,-32.79384 -24.0625,-50.46875 -0.63134,-5.9928 -1.25638,-10.17585 0.23017,-16.93623 l -0.4375,-3.125 -0.0625,-0.4375 0.0312,-0.40625 -0.28125,0.3125 -0.3125,0.25 -3.625,2.75 -1.90625,1.4375 -2.03125,-1.1875 -2.53125,-1.46875 -2.03125,-1.1875 0.28125,-2.3125 0.5625,-4.5 0.0625,-0.40625 0.15625,-0.375 z m 129.83233,57.27998 -0.0312,0.125 -0.0625,0.40625 -0.15625,0.375 -1.75,4.1875 -0.9375,2.15625 -2.34375,0 -2.90625,0 -2.375,0 -0.3125,-0.71875 c -3.83504,8.79044 -10.05851,15.11649 -17.875,24.21875 -10.05333,11.70705 -22.52771,22.55654 -33.90625,39.03125 -0.0596,0.0863 -0.12794,0.16348 -0.1875,0.25 -2.85658,4.14985 -5.6552,8.53684 -8.3125,13.1875 -0.70256,1.22958 -1.37885,2.4819 -2.0625,3.75 -0.66328,1.23033 -1.3252,2.48204 -1.96875,3.75 -0.0212,0.0417 -0.0413,0.0833 -0.0625,0.125 0.001,0.0102 -10e-4,0.021 0,0.0312 -4.37315,8.63729 -8.25748,18.16394 -11.375,28.78125 8.03115,-1.23402 16.38342,-2.00324 24.96875,-2.28125 2.72798,-7.64208 3.99782,-15.08225 4.03125,-22.25 12.23173,-22.65144 28.33091,-36.56226 42.3125,-52.84375 10.1307,-11.79714 19.29944,-21.94089 23.71875,-37 l -1.4375,0.375 -2.28125,0.625 -1.46875,-1.875 -2.78125,-3.59375 -0.25,-0.34375 -0.15625,-0.375 z"
       id="path3985"
       inkscape:connector-curvature="0"
       sodipodi:nodetypes="cccccsssccssccccccccccccccccccccccccccsccssccccccscccccccc" />
    <path
       sodipodi:type="arc"
       style="fill:#800000;fill-opacity:0.37037036;stroke:none"
       id="path4038"
       sodipodi:cx="362.13968"
       sodipodi:cy="384.65134"
       sodipodi:rx="6.5659914"
       sodipodi:ry="6.5659914"
       d="m 368.70567,384.65134 a 6.5659914,6.5659914 0 1 1 -13.13198,0 6.5659914,6.5659914 0 1 1 13.13198,0 z"
       transform="matrix(1.652714,0,0,1.652714,-303.20448,-36.137285)" />
    <path
       transform="matrix(1.652714,0,0,1.652714,-263.30345,-127.30355)"
       d="m 368.70567,384.65134 a 6.5659914,6.5659914 0 1 1 -13.13198,0 6.5659914,6.5659914 0 1 1 13.13198,0 z"
       sodipodi:ry="6.5659914"
       sodipodi:rx="6.5659914"
       sodipodi:cy="384.65134"
       sodipodi:cx="362.13968"
       id="path4066"
       style="fill:#800000;fill-opacity:0.37037036;stroke:none"
       sodipodi:type="arc" />
    <path
       sodipodi:type="arc"
       style="fill:#800000;fill-opacity:0.37037036;stroke:none"
       id="path4068"
       sodipodi:cx="362.13968"
       sodipodi:cy="384.65134"
       sodipodi:rx="6.5659914"
       sodipodi:ry="6.5659914"
       d="m 368.70567,384.65134 a 6.5659914,6.5659914 0 1 1 -13.13198,0 6.5659914,6.5659914 0 1 1 13.13198,0 z"
       transform="matrix(1.652714,0,0,1.652714,-196.88592,-63.158863)" />
    <path
       transform="matrix(1.652714,0,0,1.652714,-243.35294,-165.18427)"
       d="m 368.70567,384.65134 a 6.5659914,6.5659914 0 1 1 -13.13198,0 6.5659914,6.5659914 0 1 1 13.13198,0 z"
       sodipodi:ry="6.5659914"
       sodipodi:rx="6.5659914"
       sodipodi:cy="384.65134"
       sodipodi:cx="362.13968"
       id="path4070"
       style="fill:#800000;fill-opacity:0.37037036;stroke:none"
       sodipodi:type="arc" />
    <path
       sodipodi:type="arc"
       style="fill:#800000;fill-opacity:0.37037036;stroke:none"
       id="path4072"
       sodipodi:cx="362.13968"
       sodipodi:cy="384.65134"
       sodipodi:rx="6.5659914"
       sodipodi:ry="6.5659914"
       d="m 368.70567,384.65134 a 6.5659914,6.5659914 0 1 1 -13.13198,0 6.5659914,6.5659914 0 1 1 13.13198,0 z"
       transform="matrix(1.652714,0,0,1.652714,-425.65171,-135.6775)" />
    <path
       transform="matrix(1.652714,0,0,1.652714,-433.19824,-81.460693)"
       d="m 368.70567,384.65134 a 6.5659914,6.5659914 0 1 1 -13.13198,0 6.5659914,6.5659914 0 1 1 13.13198,0 z"
       sodipodi:ry="6.5659914"
       sodipodi:rx="6.5659914"
       sodipodi:cy="384.65134"
       sodipodi:cx="362.13968"
       id="path4074"
       style="fill:#800000;fill-opacity:0.37037036;stroke:none"
       sodipodi:type="arc" />
    <path
       sodipodi:type="arc"
       style="fill:#800000;fill-opacity:0.37037036;stroke:none"
       id="path4076"
       sodipodi:cx="362.13968"
       sodipodi:cy="384.65134"
       sodipodi:rx="6.5659914"
       sodipodi:ry="6.5659914"
       d="m 368.70567,384.65134 a 6.5659914,6.5659914 0 1 1 -13.13198,0 6.5659914,6.5659914 0 1 1 13.13198,0 z"
       transform="matrix(1.652714,0,0,1.652714,-507.12681,-201.10355)" />
    <path
       style="font-size:medium;font-style:normal;font-variant:normal;font-weight:normal;font-stretch:normal;text-indent:0;text-align:start;text-decoration:none;line-height:normal;letter-spacing:normal;word-spacing:normal;text-transform:none;direction:ltr;block-progression:tb;writing-mode:lr-tb;text-anchor:start;baseline-shift:baseline;color:#000000;fill:#000000;fill-opacity:1;fill-rule:nonzero;stroke:none;stroke-width:5.40813541;marker:none;visibility:visible;display:inline;overflow:visible;enable-background:accumulate;font-family:Sans;-inkscape-font-specification:Sans"
       d="m 202.9557,625.90528 0.0773,7.50226 4.524,-0.0434 0.0387,0 0.0387,0 5.95466,0.0867 0,-0.0434 5.76134,0.26019 0.0773,0 0.88933,0.0867 0.42534,-7.50225 -0.96667,-0.0867 -0.0387,0 -0.0387,0 -5.95467,-0.21682 -0.0387,-0.0434 -0.0387,0 -6.032,-0.0434 -0.0387,0 -0.0387,0 z m -13.41733,0.69385 -0.0387,0 -0.0387,0 -5.8,0.60712 -0.0387,0 -0.0387,0 -5.64533,0.73722 -0.0773,0 -0.0387,0 -1.508,0.21682 0.96666,7.45889 1.392,-0.21682 5.60667,-0.73722 0.0773,0 5.60667,-0.56375 0.0773,0 4.408,-0.34693 -0.42533,-7.45889 z m 39.43999,7.89255 1.856,0.17346 0.0773,0 5.568,0.73722 0,-0.0434 5.49066,0.91068 0,-0.0434 4.13734,0.82395 1.12133,-7.41552 -4.25333,-0.78059 -0.0387,-0.0434 -0.0387,0 -5.568,-0.86731 -0.0387,0 -0.0387,0 -5.684,-0.73722 -0.0387,0 -0.0387,0 -1.89467,-0.21683 z m -62.25333,-4.64013 -0.0387,0.0434 -0.0387,0 -5.336,1.17087 -0.0387,0 -0.0387,0 -5.18134,1.34434 -0.0387,0 -0.0387,0 -5.06533,1.47443 -0.0387,0 -0.0773,0 -0.696,0.21683 1.856,7.24206 0.61866,-0.21683 0.0773,0 4.872,-1.43107 0.0773,0 5.02667,-1.2576 5.22,-1.17087 0.0773,0 0.77333,-0.17346 -1.12133,-7.37216 z m 87.812,9.06342 3.016,0.73722 0,0.0434 4.94933,1.3877 0,0.0434 4.83334,1.5178 0.0773,0.0434 3.75067,1.34434 2.01066,-7.15533 -3.78933,-1.3877 -0.0773,0 -0.0387,0 -4.91067,-1.60453 -0.0387,0 -0.0387,0 -5.06533,-1.47443 -0.0387,0 -0.0387,0 -3.132,-0.82395 z m -113.48666,-1.69126 -0.0387,0 -0.0773,0.0434 -4.56267,1.82135 -0.0773,0 -0.0387,0.0434 -4.408,1.95145 -0.0773,0 -0.0387,0.0434 -4.25333,2.03818 -0.0773,0.0434 -0.0387,0 -2.436,1.30097 2.9,6.80841 2.28133,-1.25761 0.116,-0.0434 4.06,-1.95146 0.0773,-0.0434 4.25334,-1.86473 0.0773,-0.0434 4.408,-1.73463 0.0773,-0.0434 0.464,-0.17347 -2.01066,-7.15533 z m 138.11733,10.06083 1.624,0.73722 0.116,0.0434 4.02133,1.95146 0.116,0.0434 3.944,2.12492 0,-0.0434 3.67333,2.16828 0.116,0.0867 1.77867,1.1275 3.32533,-6.50484 -1.89466,-1.21424 -0.0387,-0.0434 -0.0773,-0.0434 -3.86667,-2.25502 -0.0773,-0.0434 -0.0387,0 -4.06,-2.21165 -0.0773,0 -0.0387,-0.0434 -4.25333,-2.03818 -0.0773,-0.0434 -0.0387,0 -1.70134,-0.78058 z m -163.676,2.9055 -0.0387,0.0434 -0.0773,0.0434 -3.48,2.47184 -0.0773,0.0434 -0.0387,0.0434 -3.28667,2.55858 -0.0773,0.0867 -0.0387,0.0434 -3.05466,2.64531 -0.0773,0.0867 -0.0773,0.0434 -2.82267,2.7754 -0.0773,0.0434 -0.0387,0.0867 -0.116,0.1301 4.292,4.94368 0.348,0.43366 0.0387,0 0.0387,-0.0867 0.0387,-0.0434 2.552,-2.47184 0.15467,-0.1301 2.784,-2.42847 0.116,-0.0867 3.016,-2.38511 0.0773,-0.0434 0.0387,-0.0434 3.20933,-2.29838 0.15467,-0.0867 1.31467,-0.86731 -3.32534,-6.50485 z m 186.18,10.45112 1.044,0.82395 0.116,0.0867 2.784,2.42847 0.116,0.1301 2.552,2.47184 0.15466,0.1301 2.28134,2.51521 0.0387,0.0434 0.116,0.1301 2.04934,2.55857 0.15466,0.17346 0.73467,1.08414 5.25867,-4.68349 -0.88934,-1.2576 -0.0773,-0.0867 -0.0773,-0.0867 -2.35867,-2.9055 -0.0387,-0.0867 -0.0773,-0.0867 -2.59067,-2.81877 -0.0773,-0.0867 -0.0773,-0.0434 -2.82267,-2.7754 -0.0773,-0.0434 -0.0387,-0.0867 -3.05467,-2.64531 -0.0773,-0.0434 -0.0773,-0.0867 -1.16,-0.91068 z m -206.789332,9.62717 -0.03867,0.0867 -0.03867,0.0867 -0.966667,1.5178 -0.03867,0.0434 -0.03867,0.0434 -0.889333,1.56116 -0.03867,0.0434 -0.03867,0.0867 -0.811999,1.5178 -0.03867,0.0867 -0.03867,0.0434 -0.734666,1.56116 -0.03867,0.0867 -0.03867,0.0867 -0.696,1.56116 -0.03867,0.0867 0,0.0434 -0.618667,1.60453 -0.03867,0.0867 -0.03867,0.0867 -0.541334,1.60453 -0.03867,0.0867 0,0.0434 -0.502667,1.64789 -0.03867,0.0867 0,0.0867 -0.425333,1.60452 0,0.0867 -0.03867,0.0867 -0.309333,1.64789 -0.03867,0.0867 0,0.1301 -0.07733,0.30356 6.612,1.30097 0,-0.1301 0.03867,-0.17346 0.270667,-1.30097 0,-0.0434 0.03867,-0.13009 0.386666,-1.47444 0.348,-1.2576 0.07733,-0.17346 0.502666,-1.43107 0.502667,-1.30097 0.03867,-0.13009 0.58,-1.30097 0.03867,-0.1301 0.657334,-1.30097 0.03867,-0.1301 0.696,-1.30097 0.07733,-0.13009 0.734666,-1.30097 0.07733,-0.0867 0.773325,-1.25761 0.116,-0.13009 0.85067,-1.25761 -5.219995,-4.64012 z"
       id="path4086"
       inkscape:connector-curvature="0"
       sodipodi:nodetypes="ccccccccccccccccccccccccccccccccccccccccccccccccccccccccccccccccccccccccccccccccccccccccccccccccccccccccccccccccccccccccccccccccccccccccccccccccccccccccccccccccccccccccccccccccccccccccccccccccccccccccccccccccccccccccccccccccccccccccccccccccccccccccccccccccccccccccccccccccccccc" />
    <rect
       style="fill:#800000;fill-opacity:0.37037036;stroke:none"
       id="rect4297"
       width="168.31717"
       height="126.43903"
       x="277.99533"
       y="974.56097" />
    <g
       id="g4328"
       inkscape:transform-center-x="-4.7474547"
       inkscape:transform-center-y="-70.312309"
       transform="matrix(0.96592583,0.25881905,-0.25881905,0.96592583,200.81197,-160.28699)">
      <rect
         style="fill:#808000;fill-opacity:0.37037036;stroke:none"
         id="rect4305"
         width="21.25"
         height="53.125"
         x="687.90625"
         y="502.95166" />
    </g>
    <path
       style="fill:#808000;fill-opacity:0.37037036;stroke:none"
       d="m 265.8125,30.625 -25.5,44.15625 22.0625,12.75 -17.03125,29.5 c 14.38429,2.40008 43.33016,-7.84484 72.46875,-16.21875 -1.00041,-0.25767 -1.94637,-0.59371 -2.65625,-1.0625 -2.10736,-1.39167 -0.54717,-4.04797 -3.59375,-6.28125 C 308.51592,91.23547 306.306,97.6894 298.25,88 c -8.056,-9.689395 -13.47313,7.20555 -20.34375,1.90625 -6.87062,-5.299304 4.98527,-29.588331 19.28125,-23.59375 11.62777,3.864135 5.08429,4.325272 11.03125,7.375 1.66372,0.644183 0.61308,12.017069 4.84375,4.90625 1.84374,-3.847441 4.34066,-6.431344 5.4375,-10.625 1.09684,-4.193656 4.2474,-10.064171 2.21875,-12 -1.27313,-1.214879 -5.81414,-3.920797 -7.21875,-5.9375 l -3.53125,6.09375 -44.15625,-25.5 z m 56.90625,3.40625 -6.375,11.03125 c 1.49293,4.47e-4 3.63225,0.520913 5.625,1.5625 2.04584,1.881005 3.98379,2.988034 7.53125,1.65625 1.18481,0.04063 4.35119,0.65996 5.5,1.21875 0.58379,0.76893 0.54795,-0.213062 -0.21875,3.75 -0.7667,3.963062 -3.20373,3.609944 -3.3125,5.125 -0.10877,1.515056 0.66706,5.83035 1.78125,7.8125 1.32739,2.231111 6.60691,4.427745 3.46875,8.28125 -1.38054,0.778016 -3.15796,-9.074949 -4.59375,-2.125 0.5088,2.263574 8.50096,5.966895 4.71875,9.5 -1.73812,0.502554 -4.91846,-9.39902 -8.15625,-3.25 -0.45628,1.211049 1.06047,3.039653 1.21875,6.15625 0.15828,3.116597 -2.76981,4.99005 -2.125,5.46875 0.64481,0.4787 4.5229,1.2775 4.46875,2.6875 -0.0541,1.41 -2.42084,1.59317 -3.8125,1.8125 -1.39166,0.21933 -3.00069,-1.93072 -4.25,-1.125 -1.24931,0.80572 -3.56802,3.53562 -2.5625,5.03125 0.21951,0.3265 0.61521,0.59351 1.0625,0.8125 8.36769,-2.33353 16.6998,-4.45391 24.625,-6 l 19.5625,-33.90625 -44.15625,-25.5 z m -7.5625,13.125 -0.375,0.59375 c 0.27055,-0.05452 0.52833,-0.09181 0.875,-0.125 -0.20606,-0.168116 -0.34924,-0.317183 -0.5,-0.46875 z m 28.40625,63.75 c -39.20941,0.24793 -84.11091,27.93134 -101.71875,23.65625 l 39.21875,22.65625 12.75,-22.09375 44.15625,25.5 25.5,-44.1875 -8.0625,-4.65625 c -3.87281,-0.61791 -7.8153,-0.90047 -11.84375,-0.875 z"
       id="rect4345"
       inkscape:connector-curvature="0" />
    <g
       transform="matrix(0.11069078,0,0,0.11069078,271.41317,-16.947523)"
       id="layer1-7"
       inkscape:label="Ebene 1"
       style="fill:#808000;stroke:none" />
    <path
       sodipodi:nodetypes="csccscssccccscsscsccsscccccccc"
       style="fill:#808000;stroke:none"
       d="m 336.65127,560.69274 c 4.01018,0.056 5.90553,3.0564 7.92172,6.8336 2.48146,4.6488 -0.38574,18.4467 0.67558,18.5518 1.06133,0.105 5.586,-1.0997 12.4655,0.7772 6.8795,1.8768 20.11112,10.1133 27.05939,13.5297 6.94826,3.4164 17.25699,6.7174 13.38022,7.1504 -3.87676,0.4331 -3.24988,0.268 -3.81438,0.287 -0.5645,0.019 10.94254,2.9958 12.4655,5.2194 1.52295,2.2236 1.35333,1.3023 0,2.804 -1.35334,1.5016 -6.31542,0.6735 -9.27888,0.9625 -2.96345,0.2891 -5.48176,0.3005 -8.50164,0.7713 -3.01988,0.4709 -5.77792,1.741 -9.56585,2.1285 -3.78792,0.3874 -11.07193,-2.5284 -13.04542,-0.1913 -1.97349,2.3371 1.82804,4.3004 0.96256,5.2134 -0.86547,0.9129 -0.44575,-0.9048 -2.21808,-0.287 -1.77233,0.6178 -3.01762,6.0611 -6.28356,6.4749 -3.26595,0.4138 -10.74325,-1.04 -12.65681,-2.5111 -1.91357,-1.471 1.62914,-4.2888 3.57523,-5.1237 1.94609,-0.8349 4.49622,2.1057 5.79332,1.5485 0.60498,-0.2616 2.77084,-2.7403 1.64413,-4.6394 -1.61556,-2.2284 -8.34665,-3.5626 -13.52372,-6.3793 -5.17707,-2.8167 -13.68299,-8.5116 -15.17382,-15.7477 -1.49084,-7.2362 3.35581,-12.4432 5.79929,-16.2381 2.44349,-3.7948 2.85897,-6.5064 0.57993,-8.406 -2.27904,-1.8995 -6.52458,1.2607 -9.03375,1.985 -1.70961,0.5037 -6.03956,3.0455 -6.81566,1.0103 -0.50881,-1.4357 4.49453,-2.9493 6.76186,-5.4106 2.26733,-2.4614 1.39973,-8.105 7.68257,-9.8528 1.17803,-0.3278 2.21934,-0.4733 3.14477,-0.4604 z"
       id="path6062"
       inkscape:connector-curvature="0" />
    <path
       style="fill:#808000;fill-opacity:0.37037036;stroke:none"
       d="m 1581.9594,361.12063 -6.8191,16.3032 -1.9595,11.757 0.3135,4.3894 -1.4892,0.1567 -17.5573,2.3514 -0.7838,-4.3109 -4.9379,-10.8165 -10.8165,-14.0301 -10.9733,2.9784 -2.4298,17.4789 1.1757,11.8354 1.4892,4.2326 -1.4108,0.5487 -16.3815,6.7407 -1.8812,-3.9974 -7.5245,-9.1705 -14.0301,-10.6598 -9.9543,5.6434 2.273,17.5572 4.1542,11.1301 2.5081,3.6839 -1.1757,0.8621 -14.1084,10.8165 -2.8217,-3.3703 -9.6408,-6.8975 -16.3815,-6.7407 -8.0732,8.0732 6.7407,16.3815 6.8975,9.6408 3.3703,2.9001 -0.9405,1.1757 -10.8165,14.0301 -3.6055,-2.5082 -11.1301,-4.1542 -17.5572,-2.273 -5.6434,9.8759 10.6597,14.1085 9.1706,7.5246 4.0758,1.9595 -0.6271,1.3324 -6.8191,16.3816 -4.1542,-1.4893 -11.8354,-1.1757 -17.4789,2.3514 -2.9784,11.0517 14.0301,10.8165 10.8165,4.8596 4.3893,0.8622 -0.235,1.4892 -2.3514,17.6356 -4.3893,-0.3918 -11.7571,1.9594 -16.3032,6.8192 0,11.365 16.3032,6.8193 11.7571,1.9594 4.4676,-0.3136 0.1568,1.4894 2.273,17.5572 -4.3109,0.7838 -10.8165,4.9378 -14.0301,10.8165 2.9785,10.9733 17.4788,2.4299 11.8355,-1.2541 4.2325,-1.4893 0.5487,1.4893 6.7407,16.3815 -3.9974,1.8811 -9.1705,7.5245 -10.6598,14.0303 5.6434,9.9542 17.5573,-2.273 11.13,-4.2325 3.6839,-2.5082 0.8621,1.2541 10.8166,14.03 -3.3704,2.9002 -6.8975,9.6407 -6.7407,16.3817 8.0732,8.0731 16.3815,-6.7407 9.6408,-6.8975 2.9001,-3.3703 1.1757,0.9406 14.0301,10.8165 -2.5082,3.6055 -4.1542,11.13 -2.273,17.4788 9.9543,5.7219 14.0301,-10.6598 7.5245,-9.2489 1.9596,-3.9975 1.3324,0.627 16.3816,6.8193 -1.4893,4.154 -1.1757,11.7571 2.4298,17.5572 10.9733,2.9785 10.8165,-14.03 4.938,-10.8168 0.8621,-4.3893 1.4109,0.2358 17.6356,2.3514 -0.3919,4.3893 1.9595,11.7571 6.8191,16.2249 11.3652,0 6.8191,-16.2249 1.9595,-11.7571 -0.3135,-4.4678 1.4892,-0.1555 17.5572,-2.2732 0.7838,4.3108 4.938,10.8168 10.8165,14.03 10.9733,-2.9785 2.4298,-17.5572 -1.1757,-11.7571 -1.4893,-4.2325 1.4109,-0.5486 16.3815,-6.8192 1.8811,3.9975 7.5246,9.2489 14.0301,10.6598 9.9543,-5.7219 -2.273,-17.4787 -4.2326,-11.1301 -2.5082,-3.684 1.2541,-0.862 14.1085,-10.8166 2.8217,3.3703 9.6408,6.8975 16.3815,6.7407 8.0732,-8.0731 -6.7407,-16.3817 -6.8975,-9.6407 -3.3703,-2.9002 0.9405,-1.1756 10.8165,-14.1085 3.6055,2.5082 11.1301,4.2325 17.4788,2.273 5.7218,-9.9542 -10.6597,-14.0303 -9.2489,-7.5245 -3.9975,-1.9594 0.6271,-1.3326 6.8191,-16.3814 4.1542,1.4108 11.8354,1.2541 17.4789,-2.4299 2.9784,-10.9733 -14.0301,-10.8165 -10.8165,-4.9378 -4.3893,-0.8623 0.235,-1.4109 2.3514,-17.6354 4.3893,0.3918 11.7571,-1.9594 16.3032,-6.8192 0,-11.3651 -16.3032,-6.8192 -11.7571,-1.9594 -4.4676,0.3135 -0.1568,-1.4893 -2.273,-17.5572 4.3109,-0.8622 10.8165,-4.8596 14.0301,-10.8165 -2.9785,-11.0517 -17.4788,-2.3514 -11.8355,1.1757 -4.2325,1.4893 -0.5487,-1.4109 -6.7407,-16.3815 3.919,-1.8811 9.2489,-7.5246 10.6598,-14.1084 -5.7218,-9.876 -17.4789,2.273 -11.13,4.1542 -3.6839,2.5082 -0.8621,-1.1757 -10.8166,-14.1085 3.3704,-2.8217 6.8975,-9.6408 6.7407,-16.3815 -8.0732,-8.0732 -16.3815,6.7407 -9.6408,6.8975 -2.9001,3.3703 -1.1757,-0.9405 -14.1085,-10.8165 2.5082,-3.6055 4.2325,-11.1301 2.2731,-17.5572 -9.9543,-5.6434 -14.0302,10.6598 -7.5245,9.1705 -1.9595,4.0758 -1.3325,-0.6271 -16.3815,-6.8191 1.4892,-4.1541 1.1758,-11.8355 -2.4298,-17.4788 -10.9733,-2.9785 -10.8165,14.0301 -4.938,10.8165 -0.8622,4.3893 -1.4108,-0.235 -17.6356,-2.3514 0.3919,-4.3893 -1.9595,-11.7571 -6.8191,-16.3031 -11.3652,0 z"
       id="path4405"
       inkscape:connector-curvature="0" />
    <path
       style="fill:none;stroke:#000000;stroke-width:1px;stroke-linecap:butt;stroke-linejoin:miter;stroke-opacity:1"
       d="M 273.75134,291.71731 z"
       id="path4409"
       inkscape:connector-curvature="0" />
    <path
       transform="matrix(0.99144486,0.13052619,-0.13052619,0.99144486,0,0)"
       style="fill:#808000;fill-opacity:0.37037036;stroke:none"
       inkscape:transform-center-x="40.797869"
       inkscape:transform-center-y="391.32979"
       d="m 568.58978,-136.97058 21.25984,0 -0.32093,768.72327 -21.25984,0 z"
       id="rect4462"
       inkscape:connector-curvature="0"
       sodipodi:nodetypes="ccccc" />
    <rect
       style="fill:#d40000;fill-opacity:0.37037036;stroke:none"
       id="rect4475"
       width="66.967766"
       height="468.2308"
       x="581.60364"
       y="-61.58292" />
    <rect
       style="fill:#d40000;fill-opacity:0.37037036;stroke:none"
       id="rect4500"
       width="78.791901"
       height="786.6142"
       x="214.05717"
       y="-61.5625" />
    <path
       sodipodi:type="arc"
       style="fill:#808000;fill-opacity:0.37037036;stroke:none"
       id="path4502"
       sodipodi:cx="373.21429"
       sodipodi:cy="-92.280678"
       sodipodi:rx="11.071428"
       sodipodi:ry="11.071428"
       d="m 384.28572,-92.280678 a 11.071428,11.071428 0 1 1 -22.14285,0 11.071428,11.071428 0 1 1 22.14285,0 z"
       transform="matrix(0.48006097,0,0,0.48006097,74.287509,36.547736)" />
    <rect
       style="fill:#808000;fill-opacity:0.37037036;stroke:none"
       id="rect4514"
       width="21.259842"
       height="21.259842"
       x="583.07959"
       y="185.93242"
       transform="matrix(0.99144486,0.13052619,-0.13052619,0.99144486,0,0)" />
    <path
       style="fill:#808000;fill-opacity:0.37037036;stroke:none"
       d="m 581.59375,186.78125 0,0.78125 c -0.20301,0.66838 -0.53713,1.28714 -1.03125,1.78125 -0.71351,0.7135 -1.71243,1.14456 -2.71875,1.21875 -0.47506,0.035 -0.93,-0.01 -1.40625,0 -1.18913,0.0248 -2.36909,0.41487 -3.4375,0.9375 -1.06841,0.52263 -2.05382,1.19731 -3.03125,1.875 -0.97743,0.67769 -1.94214,1.36259 -3,1.90625 -1.05786,0.54366 -2.21903,0.92821 -3.40625,1 -0.8322,0.0503 -1.66857,-0.0616 -2.5,0 -1.20077,0.089 -2.35949,0.54058 -3.375,1.1875 -1.01551,0.64692 -1.88665,1.50714 -2.6875,2.40625 -1.40415,1.57644 -2.59175,3.35914 -4.28125,4.625 -1.34397,1.00697 -2.98389,1.6281 -4.65625,1.78125 l -9.5625,75.1875 c 1.87379,4.97705 3.52554,10.06027 4.9375,15.1875 0.29166,1.05909 0.57855,2.12922 0.71875,3.21875 0.21305,1.65559 0.094,3.33341 0,5 -0.55016,9.75011 -0.23784,19.52748 -0.71875,29.28125 -0.27025,5.48129 -0.81447,10.92541 -1.09375,16.40625 -0.30906,6.06528 -0.3073,12.14571 -0.34375,18.21875 -0.01,1.67493 -0.0335,3.36807 0.34375,5 0.49151,2.12631 1.64244,4.03615 2.65625,5.96875 1.01381,1.9326 1.93479,4.0061 2,6.1875 0.0178,0.59508 -0.03,1.18666 0,1.78125 0.0979,1.94025 1.04346,3.77905 2.3125,5.25 1.26904,1.47095 2.8448,2.62122 4.46875,3.6875 7.65817,5.02835 16.55749,8.50672 25.71875,8.5625 1.36952,0.008 2.73174,-0.0752 4.09375,-0.21875 l 0,-25.53125 21.28125,0 0,-21.25 -21.28125,0 0,-2.6875 c -0.79063,-0.96902 -1.67214,-1.85321 -2.65625,-2.625 -0.42538,-1.71113 -0.80521,-3.44805 -1.09375,-5.1875 -0.27552,-1.66096 -0.46127,-3.33161 -0.6875,-5 -0.24207,-1.7852 -0.50436,-3.55501 -0.71875,-5.34375 -0.75219,-6.27579 -0.97235,-12.62188 -0.71875,-18.9375 0.10041,-2.50063 0.27389,-5.01239 0,-7.5 -0.3505,-3.18341 -1.44568,-6.27113 -1.625,-9.46875 -0.0167,-0.29741 -0.0255,-0.60947 0,-0.90625 0.0743,-0.86383 0.43711,-1.67713 0.90625,-2.40625 0.46914,-0.72912 1.04482,-1.36014 1.59375,-2.03125 1.75377,-2.14413 3.28544,-4.48151 5,-6.65625 l 0,-35.59375 c -0.34219,-0.45318 -0.69989,-0.90674 -1.0625,-1.34375 -0.96281,-1.5397 -1.47471,-3.34068 -1.4375,-5.15625 0.009,-0.41694 0.0448,-0.83538 0,-1.25 -0.0811,-0.75156 -0.39509,-1.45917 -0.6875,-2.15625 -0.26959,-0.64267 -0.50612,-1.30505 -0.71875,-1.96875 -0.20716,-0.64661 -0.39173,-1.30426 -0.53125,-1.96875 -0.55897,-2.6622 -0.3236,-5.42194 0.1875,-8.09375 0.5111,-2.67181 1.26709,-5.2917 1.75,-7.96875 0.21372,-1.18477 0.39803,-2.3699 0.5625,-3.5625 0.56957,-4.12995 1.20006,-8.27169 1.9375,-12.375 l 21.28125,0 0,-21.25 -21.28125,0 z"
       id="rect4522"
       inkscape:connector-curvature="0" />
    <path
       style="fill:#808000;fill-opacity:0.37037036;stroke:none"
       inkscape:transform-center-x="40.797869"
       inkscape:transform-center-y="391.32979"
       d="m 777.65059,-35.772851 21.07796,2.774966 -100.6567,762.104845 -21.07796,-2.77497 z"
       id="path4563"
       inkscape:connector-curvature="0"
       sodipodi:nodetypes="ccccc" />
    <path
       style="fill:#808000;fill-opacity:0.37037036;stroke:none"
       d="m 546.82827,691.50539 c 4.58349,1.50452 9.51412,-0.98911 11.01865,-5.57262 0.3221,-0.98125 0.46798,-1.98795 0.44217,-2.96436 0.5485,0.8098 1.241,1.53725 2.07588,2.14767 3.89423,2.84728 9.36556,2.00011 12.21283,-1.89414 2.84726,-3.89425 1.99634,-9.35417 -1.89789,-12.20144 -0.83836,-0.61295 -1.75662,-1.05141 -2.69878,-1.32827 0.94508,-0.27112 1.86258,-0.7026 2.70566,-1.31127 3.9113,-2.8238 4.79216,-8.28507 1.96836,-12.19637 -2.82379,-3.9113 -8.28507,-4.79215 -12.19636,-1.96836 -0.8447,0.60984 -1.54266,1.34184 -2.09794,2.15541 0.0349,-0.98438 -0.0935,-1.98762 -0.41243,-2.97943 -1.47693,-4.59247 -6.39784,-7.11955 -10.9903,-5.64262 -4.59245,1.47693 -7.11956,6.39783 -5.64263,10.99029 0.31836,0.98992 0.80171,1.88123 1.40221,2.65968 -0.92291,-0.33536 -1.91099,-0.52266 -2.94953,-0.52577 -4.82409,-0.0145 -8.74529,3.87897 -8.75975,8.70309 -0.0146,4.82407 3.87896,8.74524 8.70308,8.75974 1.03367,0.003 2.02346,-0.17277 2.94485,-0.49962 -0.59953,0.77114 -1.07859,1.66847 -1.40069,2.64973 -1.50449,4.58351 0.98911,9.51413 5.57261,11.01866 z"
       id="path4569"
       inkscape:connector-curvature="0" />
    <path
       sodipodi:type="arc"
       style="fill:#808000;fill-opacity:0.37037036;stroke:none"
       id="path4630"
       sodipodi:cx="554.29169"
       sodipodi:cy="674.48718"
       sodipodi:rx="3.125"
       sodipodi:ry="3.2083333"
       d="m 557.41669,674.48718 a 3.125,3.2083333 0 1 1 -6.25,0 3.125,3.2083333 0 1 1 6.25,0 z"
       transform="matrix(0,1,-1,0,1229.5881,115.72714)" />
    <rect
       style="fill:#808000;fill-opacity:0.37037036;stroke:none"
       id="rect4633"
       width="21.28125"
       height="21.25"
       x="242.8125"
       y="186.78125" />
    <rect
       style="fill:#808000;fill-opacity:0.37037036;stroke:none"
       id="rect4635"
       width="21.28125"
       height="21.25"
       x="242.8125"
       y="358.21875" />
  </g>
  <g
     inkscape:groupmode="layer"
     id="layer3"
     inkscape:label="schneiden"
     transform="translate(1328.921,-83.265631)">
    <path
       style="fill:none;stroke:#000000;stroke-width:1px;stroke-linecap:butt;stroke-linejoin:miter;stroke-opacity:1;display:inline"
       d="M -1087.8881,436.54544 z"
       id="path4409-2"
       inkscape:connector-curvature="0" />
    <g
       transform="matrix(0.96592583,0.25881905,-0.25881905,0.96592583,-1125.4054,-16.53705)"
       inkscape:transform-center-y="-70.312309"
       inkscape:transform-center-x="-4.7474547"
       id="g4969" />
    <path
       inkscape:connector-curvature="0"
       id="path5034"
       d="m -971.796,556.95313 c 69.82459,0 126.43749,56.61293 126.43749,126.4375 l 0,10.625 15.9375,0 0,10.625 21.25,0 0,-10.625 15.9375,0 0,-10.625 c 28.3744,-22.69157 1.3902,-16.71587 -1.0938,-33.21875 l 4.3126,-0.78125 10.8124,-4.9375 14.0313,-10.8125 -2.9687,-10.96875 -17.5626,-2.4375 -11.75,1.1875 -4.25,1.5 -0.5312,-1.4375 -6.8125,-16.375 3.9687,-1.875 9.25,-7.53125 10.6876,-14.03125 -5.75,-9.9375 -17.4688,2.25 -11.125,4.25 -3.6875,2.5 -0.8437,-1.25 -10.8438,-14.09375 3.375,-2.84375 6.9062,-9.625 6.75,-16.375 -8.0937,-8.09375 -16.375,6.75 -9.625,6.90625 -2.9063,3.375 -1.1874,-0.96875 -14.0938,-10.8125 2.5,-3.59375 4.2188,-11.125 2.2812,-17.5 -9.9375,-5.71875 -14.0313,10.65625 -7.5312,9.25 -1.9688,4 -1.3124,-0.625 -16.4063,-6.8125 1.4063,-4.15625 1.2812,-11.84375 -1.0938,-7.75 1.0938,-7.75 -1.2812,-11.84375 -1.4688,-4.21875 1.4688,-0.5625 16.4062,-6.75 1.875,4 7.5312,9.1875 14.0313,10.65625 9.9375,-5.65625 -2.2812,-17.53125 -4.2188,-11.15625 -2.5,-3.65625 1.25,-0.875 14.0312,-10.8125 2.9063,3.375 9.625,6.875 16.375,6.75 8.0937,-8.0625 -6.75,-16.375 -6.9062,-9.65625 -3.375,-2.90625 0.9375,-1.15625 10.8437,-14.03125 3.5938,2.5 11.125,4.15625 17.4688,2.28125 5.75,-9.96875 -10.6876,-14.03125 -9.25,-7.53125 -3.9687,-1.9375 0.625,-1.34375 6.8125,-16.375 4.1562,1.46875 11.75,1.1875 17.5626,-2.4375 2.9687,-10.96875 -14.0313,-10.8125 -10.8124,-4.9375 -4.375,-0.875 c -24.1214,-13.92651 29.356,-16.79298 1.1562,-33.09375 l 0,-10.625 -15.9375,0 0,10.625 -21.25,0 0,-10.625 -15.9375,0 0,10.625 c 0,69.82457 -56.6129,126.4375 -126.43749,126.4375 l 0,136.90625 z m 12.90624,-68.46875 1.59375,-9.5625 -0.3125,-4.46875 1.5,-0.15625 17.5312,-2.25 0.7813,4.28125 4.9687,10.84375 1.0313,1.3125 -1.0313,1.34375 -4.9374,10.8125 -0.875,4.375 -1.4063,-0.21875 -17.65625,-2.34375 0.40625,-4.40625 -1.59375,-9.5625 z"
       style="display:inline;fill:#808000;fill-opacity:0.37037036000000001;stroke:none" />
    <path
       inkscape:connector-curvature="0"
       id="path5036"
       d="m -886.82725,84.484381 0,21.249999 c -3.60213,3.73055 -8.55457,6.12083 -13.71875,6.59375 -5.03908,0.46146 -10.16449,-0.82927 -15.15625,0 -3.44836,0.57287 -6.66139,2.12843 -9.59375,4.03125 -5.15819,3.34717 -11.35533,6.79814 -14.6875,11.96875 -0.62585,0.97116 0.54517,2.98184 0,4 l -10.625,0 0,15.9375 -10.625,0 0,21.25 10.625,0 0,15.9375 10.625,0 c 0.71004,0.33311 -0.68568,5.62092 0,6 9.45396,5.22661 18.5976,9.77797 20.75,20.375 0.57894,2.85028 0.82072,5.73857 1.375,8.59375 0.55429,2.85518 1.43534,5.71778 3.15625,8.0625 1.52269,2.07463 3.67019,3.67659 6.0625,4.625 2.39232,0.94841 5.00877,1.25542 7.5625,0.9375 2.833,-0.35269 5.53866,-1.45189 8.03125,-2.84375 2.4926,-1.39186 4.79923,-3.09438 7.125,-4.75 7.67935,-5.46663 15.93215,-10.66753 25.25,-12.09375 4.60763,-0.70526 9.30775,-0.45841 13.96875,-0.40625 4.66101,0.0522 9.40162,-0.11774 13.8125,-1.625 2.07165,-0.70791 4.03493,-1.70552 6.0625,-2.53125 3.38064,-1.37677 6.98218,-2.29863 10.625,-2.53125 6.29078,-0.40172 12.67083,1.31756 17.9375,4.78125 2.30109,4.7874 3.42717,10.12875 3.25,15.4375 -0.0762,2.28387 -0.36306,4.53147 -0.5,6.8125 -0.13694,2.28103 -0.11931,4.61288 0.5,6.8125 0.70497,2.50386 2.17332,4.77441 4.0625,6.5625 2.66684,2.52413 6.16155,4.06508 9.75,4.84375 3.58845,0.77867 7.26761,0.84196 10.9375,0.71875 7.75742,-0.26044 15.60226,-1.3257 23.25,0 7.89867,1.36919 15.24435,5.24246 23.21875,6.0625 1.17545,0.12088 2.39372,0.17389 3.5625,0 2.36861,-0.3524 4.53871,-1.65861 6.03125,-3.53125 1.81339,-2.27518 2.55862,-5.20533 3.46875,-7.96875 0.45506,-1.38171 0.95258,-2.74457 1.6875,-4 0.73492,-1.25543 1.71318,-2.40185 2.9375,-3.1875 1.93857,-1.24399 4.31994,-1.50544 6.5625,-2.03125 1.65021,-0.38692 3.28261,-0.94352 4.71875,-1.84375 1.43614,-0.90023 2.6847,-2.13948 3.375,-3.6875 0.87571,-1.96377 0.79782,-4.22953 0.40625,-6.34375 -0.39157,-2.11422 -1.09845,-4.18922 -1.4375,-6.3125 -0.4446,-2.78433 -0.26293,-5.6383 0.53125,-8.34375 2.53308,-4.37238 7.13375,-7.52406 12.125,-8.3125 3.32762,-0.52565 6.75187,-0.0317 9.96875,0.96875 3.21689,1.00047 6.24737,2.50625 9.21875,4.09375 2.65777,1.41994 5.26994,2.89921 8.0625,4.03125 3.22639,1.3079 6.66655,2.13223 10.125,2.53125 3.6846,0.42511 7.38692,0.37212 11.09375,0.5 4.21165,0.14529 8.44272,0.51728 12.625,0 4.19014,-0.51825 8.22513,-1.91357 12.125,-3.53125 6.68043,-2.77106 13.05795,-6.20309 19.6875,-9.09375 2.59664,-1.1322 5.28075,-2.19739 8.09375,-2.53125 3.21289,-0.38132 6.46091,0.19177 9.59375,1 2.85001,0.73526 5.71331,1.6727 8.65625,1.625 1.47147,-0.0239 2.9567,-0.29613 4.28125,-0.9375 1.03052,-2.90029 5.5773,-3.90321 6.09375,-6.9375 0.2103,-1.9154 -1.04671,-8.38217 0,-10 l 10.625,0 0,-15.9375 -10.625,0 0,-21.25 10.625,0 0,-15.9375 -10.625,0 c -0.86669,-0.71599 0.86567,-7.28321 0,-8 -4.72922,-3.91587 -12.0425,-1.9932 -16.75,-5.9375 -0.67412,-0.56483 -1.34605,-1.13071 -2.09375,-1.59375 -0.7477,-0.46304 -1.59604,-0.82871 -2.46875,-0.9375 -1.25619,-0.15659 -2.49964,0.21862 -3.6875,0.65625 -1.18786,0.43763 -2.36992,0.92853 -3.625,1.09375 -1.35036,0.17777 -2.76049,-0.0589 -3.96875,-0.6875 -1.20826,-0.62865 -2.20367,-1.64151 -2.84375,-2.84375 -0.27538,-0.51723 -0.48458,-1.05718 -0.78125,-1.5625 -0.29666,-0.50532 -0.71051,-0.99003 -1.25,-1.21875 -0.39654,-0.16812 -0.82321,-0.192 -1.25,-0.25 -1.72757,-0.23479 -3.34159,-0.99004 -4.84375,-1.875 -1.50216,-0.88496 -2.93028,-1.89756 -4.5,-2.65625 -1.25538,-0.60677 -2.58401,-1.06656 -3.78125,-1.78125 -0.1621,-0.0968 -0.35009,-0.1969 -0.53125,-0.25 -0.16401,-0.0481 -0.33749,-0.0529 -0.5,0 -0.10808,0.0352 -0.20085,0.10583 -0.28125,0.1875 l 0,-20.187499 -88.5625,0 0,21.249999 -106.3125,0 0,-21.249999 -88.59375,0 z m 115.15625,127.562499 53.125,0 0,21.25 -53.125,0 0,-21.25 z"
       style="display:inline;fill:#808000;fill-opacity:0.37037036000000001;stroke:none" />
    <path
       style="fill:#808000;fill-opacity:0.37037036000000001;stroke:none;display:inline"
       d="m -667.13975,244.0267 0,0.78125 c -0.203,0.66838 -0.53715,1.28715 -1.03125,1.78125 -0.7135,0.7135 -1.71235,1.14456 -2.71875,1.21875 -0.475,0.035 -0.93005,-0.01 -1.40625,0 -1.1891,0.0248 -2.3691,0.41487 -3.4375,0.9375 -1.0684,0.52263 -2.05375,1.19731 -3.03125,1.875 -0.9774,0.6777 -1.9421,1.36259 -3,1.90625 -1.0578,0.54366 -2.21905,0.92822 -3.40625,1 -0.8322,0.0503 -1.6686,-0.0616 -2.5,0 -1.2008,0.089 -2.3595,0.54059 -3.375,1.1875 -1.0155,0.64693 -1.8867,1.50714 -2.6875,2.40625 -1.4042,1.57644 -2.59175,3.35915 -4.28125,4.625 -1.3439,1.00698 -2.98395,1.6281 -4.65625,1.78125 l -9.5625,75.1875 c 1.8738,4.97705 3.5255,10.06027 4.9375,15.1875 0.2916,1.0591 0.57855,2.12922 0.71875,3.21875 0.2131,1.65559 0.094,3.33341 0,5 -0.5501,9.75011 -0.23785,19.52749 -0.71875,29.28125 -0.2703,5.48129 -0.81445,10.92541 -1.09375,16.40625 -0.309,6.06528 -0.30735,12.14571 -0.34375,18.21875 -0.01,1.67493 -0.034,3.36807 0.34375,5 0.4915,2.12631 1.64245,4.03616 2.65625,5.96875 1.0138,1.9326 1.9348,4.0061 2,6.1875 0.018,0.59508 -0.03,1.18666 0,1.78125 0.098,1.94025 1.0434,3.77905 2.3125,5.25 1.269,1.47095 2.84485,2.62122 4.46875,3.6875 7.6582,5.02835 16.55745,8.50672 25.71875,8.5625 1.3695,0.008 2.73175,-0.0752 4.09375,-0.21875 l 0,-25.53125 21.28125,0 0,-21.25 -21.28125,0 0,-2.6875 c -0.7906,-0.96902 -1.67215,-1.85321 -2.65625,-2.625 -0.4254,-1.71113 -0.80515,-3.44805 -1.09375,-5.1875 -0.2755,-1.66096 -0.4612,-3.33161 -0.6875,-5 -0.242,-1.78519 -0.50435,-3.55501 -0.71875,-5.34375 -0.7522,-6.27578 -0.97235,-12.62187 -0.71875,-18.9375 0.1004,-2.50063 0.2739,-5.01239 0,-7.5 -0.3505,-3.18341 -1.4456,-6.27113 -1.625,-9.46875 -0.017,-0.29741 -0.025,-0.60947 0,-0.90625 0.074,-0.86383 0.43705,-1.67712 0.90625,-2.40625 0.4691,-0.72912 1.04485,-1.36014 1.59375,-2.03125 1.7538,-2.14413 3.2855,-4.48151 5,-6.65625 l 0,-35.59375 c -0.3422,-0.45317 -0.6999,-0.90674 -1.0625,-1.34375 -0.9628,-1.5397 -1.4747,-3.34068 -1.4375,-5.15625 0.01,-0.41694 0.045,-0.83538 0,-1.25 -0.081,-0.75156 -0.3951,-1.45916 -0.6875,-2.15625 -0.2696,-0.64267 -0.50615,-1.30505 -0.71875,-1.96875 -0.2072,-0.64661 -0.39165,-1.30426 -0.53125,-1.96875 -0.5589,-2.6622 -0.3236,-5.42194 0.1875,-8.09375 0.5111,-2.67181 1.2671,-5.2917 1.75,-7.96875 0.2138,-1.18477 0.3981,-2.36989 0.5625,-3.5625 0.5696,-4.12995 1.2001,-8.27168 1.9375,-12.375 l 21.28125,0 0,-21.25 -21.28125,0 z m -27.78125,73.6875 21.09375,2.78125 -2.78125,21.0625 -21.09375,-2.78125 2.78125,-21.0625 z"
       id="rect4522-6"
       inkscape:connector-curvature="0" />
  </g>
</svg>
