<?xml version="1.0" encoding="UTF-8" standalone="no"?>
<!-- Created with Inkscape (http://www.inkscape.org/) -->

<svg
   xmlns:dc="http://purl.org/dc/elements/1.1/"
   xmlns:cc="http://creativecommons.org/ns#"
   xmlns:rdf="http://www.w3.org/1999/02/22-rdf-syntax-ns#"
   xmlns:svg="http://www.w3.org/2000/svg"
   xmlns="http://www.w3.org/2000/svg"
   xmlns:sodipodi="http://sodipodi.sourceforge.net/DTD/sodipodi-0.dtd"
   xmlns:inkscape="http://www.inkscape.org/namespaces/inkscape"
   width="744.09448819"
   height="1052.3622047"
   id="svg2"
   version="1.1"
   inkscape:version="0.48.5 r10040"
   sodipodi:docname="aufsteller.svg">
  <sodipodi:namedview
     id="base"
     pagecolor="#ffffff"
     bordercolor="#666666"
     borderopacity="1.0"
     inkscape:pageopacity="0.0"
     inkscape:pageshadow="2"
     inkscape:zoom="0.75"
     inkscape:cx="432.52149"
     inkscape:cy="711.46558"
     inkscape:document-units="mm"
     inkscape:current-layer="layer1"
     showgrid="false"
     inkscape:window-width="1920"
     inkscape:window-height="1036"
     inkscape:window-x="0"
     inkscape:window-y="44"
     inkscape:window-maximized="0"
     inkscape:object-nodes="true"
     inkscape:snap-midpoints="true"
     inkscape:snap-object-midpoints="true"
     inkscape:snap-smooth-nodes="false"
     showguides="true"
     inkscape:guide-bbox="true"
     inkscape:object-paths="false"
     inkscape:snap-intersection-paths="false"
     inkscape:snap-nodes="true">
    <sodipodi:guide
       orientation="0,1"
       position="581.60364,951.58182"
       id="guide4510" />
    <sodipodi:guide
       orientation="0,1"
       position="560.34381,790.61672"
       id="guide4516" />
    <sodipodi:guide
       orientation="0,1"
       position="448.34375,348.58098"
       id="guide4518" />
  </sodipodi:namedview>
  <defs
     id="defs4">
    <inkscape:path-effect
       effect="spiro"
       id="path-effect4528"
       is_visible="true" />
    <inkscape:path-effect
       effect="spiro"
       id="path-effect4454"
       is_visible="true" />
    <inkscape:path-effect
       effect="spiro"
       id="path-effect4446"
       is_visible="true" />
    <inkscape:path-effect
       effect="spiro"
       id="path-effect4442"
       is_visible="true" />
  </defs>
  <metadata
     id="metadata7">
    <rdf:RDF>
      <cc:Work
         rdf:about="">
        <dc:format>image/svg+xml</dc:format>
        <dc:type
           rdf:resource="http://purl.org/dc/dcmitype/StillImage" />
        <dc:title />
      </cc:Work>
    </rdf:RDF>
  </metadata>
  <g
     id="layer1"
     inkscape:groupmode="layer"
     inkscape:label="Layer 1">
    <path
       style="fill:#808000;fill-opacity:0.37037036;stroke:none"
       d="m 249.0625,-61.5625 -5.28125,12.59375 -1.5,9.09375 0.25,3.375 -1.15625,0.125 -13.5625,1.8125 -0.625,-3.3125 -3.8125,-8.375 -8.34375,-10.84375 -8.46875,2.3125 -1.875,13.5 0.90625,9.15625 1.125,3.25 -1.0625,0.4375 -12.65625,5.21875 -1.46875,-3.09375 -5.8125,-7.09375 -10.84375,-8.21875 -7.6875,4.34375 1.75,13.5625 3.21875,8.59375 1.9375,2.84375 -0.90625,0.6875 L 158.28125,-1.25 156.09375,-3.84375 148.65625,-9.1875 136,-14.375 129.75,-8.15625 134.96875,4.5 l 5.3125,7.46875 2.625,2.21875 -0.71875,0.90625 -4.375,8.84375 L 135.03125,22 126.4375,18.8125 112.875,17.03125 108.5,24.6875 l 8.25,10.875 7.0625,5.8125 3.15625,1.53125 L 126.5,43.9375 121.21875,56.59375 118,55.4375 l -9.125,-0.90625 -13.5,1.8125 -2.3125,8.53125 10.84375,8.375 8.34375,3.75 3.40625,0.65625 -0.1875,1.15625 -1.8125,13.625 -3.40625,-0.3125 -9.0625,1.53125 -12.59375,5.25 0,8.78125 12.59375,5.28125 9.0625,1.5 3.46875,-0.21875 0.125,1.15625 1.75,13.5625 -3.34375,0.59375 -8.34375,3.8125 -10.84375,8.375 2.3125,8.46875 13.5,1.875 9.125,-0.96875 3.28125,-1.15625 0.4375,1.15625 5.1875,12.65625 -3.09375,1.4375 -7.0625,5.8125 -8.25,10.84375 2.25,3.9375 c -6.28454,6.06742 -11.492032,11.78924 -15.78125,17.25 6.6e-4,-0.0831 0,-0.16672 0,-0.25 0,-17.0157 -13.7968,-30.8125 -30.8125,-30.8125 -17.0157,0 -30.8125,13.7968 -30.8125,30.8125 0,17.0157 13.7968,30.8125 30.8125,30.8125 5.95428,0 11.506482,-1.66862 16.21875,-4.59375 -3.609591,11.28796 -3.441038,21.66255 -2.0625,30.5 1.838051,11.78326 4.893912,20.98524 4.625,30.75 -0.252496,9.16865 -2.923928,19.55927 -13.53125,34.5 -3.56889,0.0455 -7.175044,0.0937 -10.84375,0.0937 l 0,42.3125 -21.25,0 0,53.125 21.25,0 0,177.1875 -21.25,0 0,53.15625 21.25,0 0,53.125 53.15625,0 0,-21.25 88.59375,0 0,21.25 106.3125,0 0,-21.25 88.5625,0 0,21.25 53.15625,0 0,-141.71875 21.25,0 0,-53.15625 0,-53.15625 -21.25,0 0,-31.71875 c -112.26865,0 -76.7583,-55.21766 -177.21875,-87.40625 l 1.0625,-18.28125 26.375,-17.34375 10,13.875 11.09375,-7.875 -7.15625,-5.34375 -4.65625,2.5 -4.8125,-6.09375 34.46875,-22.65625 -0.25,1.875 2.375,1.375 3.3125,-2.53125 1.78125,-2.1875 0.46875,-0.9375 0.3125,0.125 3.875,1.625 -0.34375,0.96875 -0.28125,2.8125 0.5625,4.125 2.59375,0.71875 2.5625,-3.3125 1.1875,-2.5625 0.1875,-1.03125 0.34375,0.0312 4.15625,0.5625 -0.0625,1.03125 0.4375,2.8125 1.625,3.8125 2.6875,0 1.625,-3.8125 0.46875,-2.8125 -0.0937,-1.03125 0.34375,-0.0625 4.15625,-0.53125 0.1875,1.03125 1.1875,2.5625 2.5625,3.3125 2.59375,-0.71875 0.5625,-4.125 -0.28125,-2.8125 -0.34375,-1 0.34375,-0.125 3.875,-1.59375 0.4375,0.9375 1.78125,2.1875 3.3125,2.53125 2.375,-1.375 -0.5625,-4.125 -1,-2.625 -0.59375,-0.875 0.3125,-0.21875 3.34375,-2.5625 0.65625,0.8125 2.28125,1.625 3.875,1.59375 1.90625,-1.90625 -1.59375,-3.875 -1.625,-2.28125 -0.8125,-0.6875 0.25,-0.28125 2.5625,-3.34375 0.84375,0.59375 2.625,1 4.15625,0.53125 1.34375,-2.34375 -2.53125,-3.3125 -2.1875,-1.78125 -0.9375,-0.46875 0.15625,-0.3125 1.59375,-3.875 1,0.34375 2.78125,0.28125 4.15625,-0.5625 0.6875,-2.59375 -3.3125,-2.5625 -2.5625,-1.1875 -1.03125,-0.1875 0.0625,-0.34375 0.53125,-4.1875 1.0625,0.0937 2.78125,-0.4375 3.84375,-1.625 0,-2.6875 -3.84375,-1.625 -2.78125,-0.46875 -1.0625,0.0937 -0.0312,-0.375 -0.5625,-4.15625 1.03125,-0.1875 2.5625,-1.15625 3.3125,-2.5625 -0.6875,-2.625 -4.15625,-0.53125 -2.78125,0.28125 -1,0.34375 -0.15625,-0.34375 -1.59375,-3.875 0.9375,-0.4375 2.1875,-1.78125 2.53125,-3.34375 -1.34375,-2.34375 -4.15625,0.53125 -2.625,1 -0.875,0.59375 -0.21875,-0.28125 -2.5625,-3.34375 0.8125,-0.65625 1.625,-2.28125 1.59375,-3.875 -1.90625,-1.90625 -3.875,1.59375 -2.28125,1.625 -0.6875,0.78125 -0.28125,-0.21875 -3.34375,-2.5625 0.59375,-0.84375 1,-2.625 0.5625,-4.15625 -2.375,-1.34375 -3.3125,2.53125 -1.78125,2.15625 L 382.1875,195.5 381.875,195.34375 378,193.75 l 0.34375,-1 0.28125,-2.78125 -0.40625,-3 2.25,0.84375 13.5,1.75 4.4375,-7.6875 -8.25,-10.84375 -7.125,-5.8125 -3.09375,-1.5 0.46875,-1.03125 5.28125,-12.65625 3.21875,1.09375 9.125,0.96875 13.5,-1.875 2.3125,-8.46875 L 403,133.375 l -8.34375,-3.8125 -3.40625,-0.65625 0.1875,-1.09375 3.8125,-11.625 3.40625,0.28125 9.0625,-1.5 12.59375,-5.28125 0,-8.78125 -12.59375,-5.25 -9.0625,-1.53125 -3.46875,0.25 -0.125,-1.15625 -3.75,-15.5625 L 394.65625,77 403,73.25 l 10.84375,-8.375 -2.3125,-8.53125 -13.5,-1.8125 -9.125,0.90625 L 385.625,56.59375 385.1875,55.5 380,42.84375 l 3.03125,-1.46875 7.125,-5.8125 8.25,-10.875 -4.4375,-7.65625 -13.5,1.78125 L 371.875,22 369.03125,23.9375 368.375,23.03125 360,12.125 362.625,9.96875 367.9375,2.5 l 5.21875,-12.65625 -6.25,-6.21875 -12.65625,5.1875 -7.4375,5.34375 -2.25,2.59375 -0.90625,-0.71875 -10.90625,-8.34375 1.9375,-2.8125 3.28125,-8.59375 1.75,-13.5625 -7.6875,-4.34375 -10.84375,8.21875 -5.8125,7.09375 -1.5,3.15625 -1.03125,-0.5 -12.65625,-5.25 1.125,-3.21875 0.90625,-9.15625 -1.875,-13.5 -8.46875,-2.3125 -8.34375,10.84375 -3.8125,8.375 -0.6875,3.375 -1.09375,-0.1875 -13.625,-1.8125 0.3125,-3.375 -1.5,-9.09375 -5.28125,-12.59375 z m 120.03125,244.1875 2.78125,1.9375 3.125,1.1875 -2.09375,2.6875 -1.1875,2.5625 -0.1875,1.03125 -0.34375,-0.0625 -4.15625,-0.5625 0.0937,-1.03125 -0.46875,-2.78125 -0.5,-1.15625 z m -227.8125,4.53125 5.625,7.25 -2.625,2.25 -5.3125,7.46875 L 133.75,216.78125 140,223 l 12.65625,-5.1875 7.4375,-5.34375 2.25,-2.59375 0.90625,0.71875 10.84375,8.34375 -1.9375,2.78125 -3.21875,8.625 -1.75,13.5 7.6875,4.40625 10.84375,-8.21875 5.8125,-7.15625 1.5,-3.09375 1.03125,0.5 12.65625,5.25 -1.125,3.21875 -0.90625,9.09375 1.875,13.5625 8.46875,2.28125 8.34375,-10.8125 3.8125,-8.375 0.6875,-3.375 1.09375,0.15625 6.8125,0.90625 -26.96875,80.6875 c -11.34758,-1.65979 -33.72209,-2.11175 -47.1875,-1.96875 2.52539,-7.27014 4.095,-14.14339 4.40625,-20.78125 0.47815,-10.19737 -2.75382,-20.6108 -10.59375,-27.3125 -7.83993,-6.7017 -18.50203,-9.28053 -31.3125,-9.4375 -9.34779,-0.11454 -10.12528,1.08945 -22.65625,3.59375 -0.81748,-3.82587 -1.635021,-7.37728 -2.15625,-10.71875 -1.466743,-9.4029 -1.569228,-16.98013 4.75,-28.65625 5.51208,-10.18474 16.59519,-23.3768 37.21875,-40.4375 z m 172.625,42.625 1.125,2.34375 -1.84375,0.78125 0,2.6875 3.84375,1.625 2.15625,0.34375 2,2.46875 0.28125,2.0625 -1.03125,0.1875 -2.5625,1.1875 -3.3125,2.53125 0.6875,2.625 4.15625,0.5625 2.78125,-0.28125 1,-0.375 0.15625,0.375 1.59375,3.875 -0.96875,0.4375 -2.15625,1.78125 -2.53125,3.3125 1.34375,2.34375 4.15625,-0.53125 2.625,-1 0.875,-0.59375 0.21875,0.3125 2.5625,3.3125 -0.8125,0.6875 -1.625,2.28125 -0.3125,0.78125 -54.96875,32.46875 3.34375,-56.875 2.40625,-0.3125 0.625,3.3125 3.8125,8.375 8.34375,10.8125 8.46875,-2.28125 1.875,-13.5625 -0.90625,-9.09375 -1.125,-3.28125 1.0625,-0.40625 z m -190.03125,54.875 c 9.96443,0.12209 15.38791,2.29334 17.75,4.3125 2.36209,2.01916 3.46319,4.2767 3.1875,10.15625 -0.25218,5.37806 -2.32044,13.1747 -6.28125,22.46875 -16.40605,0.72789 -24.27892,1.83405 -43.78125,2.5625 6.50645,-12.29947 9.16403,-23.35095 9.4375,-33.28125 0.0256,-0.92825 0.0399,-1.84789 0.0312,-2.75 12.17951,-2.48292 12.08823,-3.46875 19.65625,-3.46875 z"
       id="rect2985"
       inkscape:connector-curvature="0"
       sodipodi:nodetypes="ccccccccccccccccccccccccccccccccccccccccccccccccccccccccccccccccccccccccccsssscsscccccccccccccccccccccccccccccccccccccccccccccccccccccccccccccccccccccccccccccccccccccccccccccccccccccccccccccccccccccccccccccccccccccccccccccccccccccccccccccccccccccccccccccccccccccccccccccccccccccccccccccccccccccccccccccccccccccccccccccccccccccccccccccccccccccccccccccccssscsscccccccccccccccccccccccccccccccccccccccccccssccscsc" />
    <path
       style="fill:#808000;fill-opacity:0.37037036;stroke:none"
       d="M 560.34375 314.03125 C 560.34375 314.03125 581.72374 516.16268 560.34375 605.21875 C 557.92158 615.30802 552.44348 621.99324 545.4375 627.34375 C 545.20948 624.12624 544.78455 621.21593 544.15625 618.59375 C 550.89204 613.65915 555.83581 603.6059 559.0625 588.625 C 550.33566 591.73912 544.47612 599.02506 540.65625 609.28125 C 539.57578 607.30396 538.34802 605.556 537.03125 604 C 535.66552 602.38615 534.25687 600.98828 532.875 599.71875 C 537.15847 599.15931 540.46875 595.49917 540.46875 591.0625 C 540.46875 586.23839 536.57412 582.34375 531.75 582.34375 C 530.71723 582.34375 529.70091 582.5147 528.78125 582.84375 C 529.37959 582.07005 529.86791 581.20236 530.1875 580.21875 C 531.67825 575.63075 529.15051 570.67823 524.5625 569.1875 C 523.70225 568.90799 522.82768 568.76081 521.96875 568.75 C 518.24673 568.70315 514.77373 571.08476 513.5625 574.8125 C 513.24158 575.80021 513.12547 576.79973 513.15625 577.78125 C 512.60391 576.96786 511.90375 576.2362 511.0625 575.625 C 507.15971 572.78946 501.71054 573.65971 498.875 577.5625 C 496.03946 581.46529 496.87846 586.91446 500.78125 589.75 C 501.62411 590.36237 502.55383 590.78865 503.5 591.0625 C 502.55383 591.33635 501.62411 591.79387 500.78125 592.40625 C 496.87846 595.24179 496.03946 600.69097 498.875 604.59375 C 501.71054 608.49652 507.15971 609.36679 511.0625 606.53125 C 511.90375 605.92003 512.60391 605.18832 513.15625 604.375 C 513.12545 605.35646 513.24156 606.35604 513.5625 607.34375 C 515.05324 611.93175 519.97449 614.42829 524.5625 612.9375 C 526.13609 612.42623 527.46143 611.51043 528.46875 610.34375 C 528.61447 610.50566 528.76623 610.67829 528.90625 610.84375 C 532.59051 615.19737 535.3737 620.96179 535 634.03125 C 513.40428 646.16084 485.80472 655.39888 480.9375 700.53125 L 677 726.34375 C 685.13805 720.57712 672.59944 704.86016 678.21875 699.25 L 678.5 699.78125 L 686.65625 708.375 L 701.5 718.09375 L 710.90625 711.71875 L 707.53125 694.40625 L 702.53125 683.59375 L 699.75 680.09375 L 700.875 679.125 L 714.21875 667.375 L 717.28125 670.5625 L 727.375 676.8125 L 744.125 682.3125 L 751.6875 673.75 L 743.8125 657.875 L 736.28125 648.71875 L 732.6875 646.03125 L 733.5625 644.84375 L 743.34375 630.03125 L 747.125 632.28125 L 758.46875 635.65625 L 776.125 636.71875 L 781.1875 626.4375 L 769.4375 613.15625 L 759.8125 606.28125 L 755.65625 604.625 L 756.15625 603.21875 L 761.8125 586.40625 L 766.0625 587.65625 L 777.90625 587.9375 L 795.28125 584.34375 L 797.375 573.15625 L 782.6875 563.3125 L 771.59375 559.1875 L 767.09375 558.65625 L 767.28125 557.21875 L 768.375 539.53125 L 772.8125 539.53125 L 784.34375 536.8125 L 800.125 528.90625 L 799.3125 517.46875 L 782.5625 511.84375 L 770.75 510.75 L 766.34375 511.375 L 766.125 510.3125 C 767.08035 500.98282 756.1089 490.53451 740.46875 486.34375 C 727.86475 482.96652 715.85059 484.63286 709.65625 489.875 C 702.55937 488.48184 683.22479 485.41229 668.96875 490.0625 C 660.10882 492.95254 645.77223 502.38928 634.96875 512.59375 C 628.57664 518.608 623.30168 519.90791 621.8125 509.6875 C 617.56531 481.29819 624.125 452.15904 624.125 416.28125 L 624.125 364.15625 C 624.125 349.57555 614.93875 314.03125 560.34375 314.03125 z M 691.6875 495.8125 C 697.41233 495.7293 702.2055 496.5053 705.4375 497.25 C 705.2068 500.68992 707.52171 504.47786 708.28125 507.3125 C 709.38559 511.64602 710.24728 515.99896 710.875 520.34375 C 702.75357 518.82753 687.4674 516.58618 675.40625 518.46875 C 658.23115 521.14953 617 542.03125 617 542.03125 C 617 542.03125 657.10379 504.41892 675.5625 498.4375 C 681.33085 496.56831 686.83093 495.88311 691.6875 495.8125 z M 689.03125 527.8125 C 697.26095 527.7596 705.76471 528.81539 711.875 529.78125 C 712.18597 534.41417 712.23453 539.04184 712.03125 543.625 L 620.96875 551.90625 C 620.96875 551.90625 661.62195 531.33306 678.78125 528.59375 C 681.99862 528.08013 685.49864 527.83519 689.03125 527.8125 z M 711.09375 554.375 C 710.16328 561.44234 708.62664 568.37198 706.53125 575.125 L 622.25 562.4375 L 711.09375 554.375 z M 620.8125 572.9375 L 702.875 585.3125 C 700.30578 591.61874 697.24247 597.71996 693.6875 603.53125 L 620.8125 572.9375 z M 622.5 585.21875 L 687.625 612.5 C 673.31487 637.70612 647.53926 661.25 624.125 661.25 L 624.125 596.28125 C 624.125 592.07526 623.47874 588.48096 622.5 585.21875 z M 517.3125 586.90625 C 519.60556 586.90625 521.4375 588.76944 521.4375 591.0625 C 521.4375 593.35556 519.60556 595.21875 517.3125 595.21875 C 515.01944 595.21875 513.15625 593.35556 513.15625 591.0625 C 513.15625 588.76944 515.01944 586.90625 517.3125 586.90625 z "
       id="rect3825" />
    <rect
       y="455.75"
       x="581.60852"
       height="106.3125"
       width="21.25"
       id="rect3819"
       style="fill:#808000;fill-opacity:0.37037036;stroke:none" />
    <rect
       style="fill:#808000;fill-opacity:0.37037036;stroke:none"
       id="rect3821"
       width="21.25"
       height="53.125"
       x="581.60852"
       y="367.1875" />
    <rect
       y="597.53125"
       x="581.60852"
       height="53.125"
       width="21.25"
       id="rect3823"
       style="fill:#808000;fill-opacity:0.37037036;stroke:none" />
    <path
       style="fill:#808000;fill-opacity:0.37037036;stroke:none"
       d="M 111.71875 748.25 L 111.71875 769.5 C 108.11661 773.23055 103.16418 775.62083 98 776.09375 C 92.960915 776.55521 87.835507 775.26448 82.84375 776.09375 C 79.39538 776.66662 76.182357 778.22218 73.25 780.125 C 68.09181 783.47217 61.894665 786.92314 58.5625 792.09375 C 57.936642 793.06491 59.10767 795.07559 58.5625 796.09375 L 47.9375 796.09375 L 47.9375 812.03125 L 37.3125 812.03125 L 37.3125 833.28125 L 47.9375 833.28125 L 47.9375 849.21875 L 58.5625 849.21875 C 59.272534 849.55186 57.876811 854.83967 58.5625 855.21875 C 68.016452 860.44536 77.160095 864.99672 79.3125 875.59375 C 79.891432 878.44403 80.133219 881.33232 80.6875 884.1875 C 81.241781 887.04268 82.122831 889.90528 83.84375 892.25 C 85.366436 894.32463 87.513936 895.92659 89.90625 896.875 C 92.298564 897.82341 94.915011 898.13042 97.46875 897.8125 C 100.30175 897.45981 103.00741 896.36061 105.5 894.96875 C 107.99259 893.57689 110.29923 891.87437 112.625 890.21875 C 120.30435 884.75212 128.55715 879.55122 137.875 878.125 C 142.48263 877.41974 147.18275 877.66659 151.84375 877.71875 C 156.50475 877.77095 161.24537 877.60101 165.65625 876.09375 C 167.7279 875.38584 169.69118 874.38823 171.71875 873.5625 C 175.09939 872.18573 178.70093 871.26387 182.34375 871.03125 C 188.63452 870.62953 195.01457 872.34881 200.28125 875.8125 C 202.58234 880.5999 203.70842 885.94125 203.53125 891.25 C 203.45505 893.53387 203.16819 895.78147 203.03125 898.0625 C 202.89431 900.34353 202.91194 902.67538 203.53125 904.875 C 204.23622 907.37886 205.70457 909.64941 207.59375 911.4375 C 210.26059 913.96163 213.7553 915.50258 217.34375 916.28125 C 220.9322 917.05992 224.61136 917.12321 228.28125 917 C 236.03867 916.73956 243.88351 915.6743 251.53125 917 C 259.42991 918.36919 266.7756 922.24246 274.75 923.0625 C 275.92545 923.18338 277.14371 923.23639 278.3125 923.0625 C 280.68111 922.7101 282.8512 921.40389 284.34375 919.53125 C 286.15714 917.25607 286.90237 914.32592 287.8125 911.5625 C 288.26756 910.18079 288.76508 908.81793 289.5 907.5625 C 290.23492 906.30707 291.21318 905.16065 292.4375 904.375 C 294.37607 903.13101 296.75744 902.86956 299 902.34375 C 300.65021 901.95683 302.28261 901.40023 303.71875 900.5 C 305.15489 899.59977 306.40344 898.36052 307.09375 896.8125 C 307.96946 894.84873 307.89157 892.58297 307.5 890.46875 C 307.10843 888.35453 306.40154 886.27953 306.0625 884.15625 C 305.6179 881.37192 305.79957 878.51795 306.59375 875.8125 C 309.12683 871.44012 313.7275 868.28844 318.71875 867.5 C 322.04636 866.97435 325.47061 867.4683 328.6875 868.46875 C 331.90439 869.46922 334.93486 870.975 337.90625 872.5625 C 340.56401 873.98244 343.17619 875.46171 345.96875 876.59375 C 349.19513 877.90165 352.6353 878.72598 356.09375 879.125 C 359.77834 879.55011 363.48067 879.49712 367.1875 879.625 C 371.39915 879.77029 375.63022 880.14228 379.8125 879.625 C 384.00264 879.10675 388.03763 877.71143 391.9375 876.09375 C 398.61793 873.32269 404.99545 869.89066 411.625 867 C 414.22164 865.8678 416.90575 864.80261 419.71875 864.46875 C 422.93163 864.08743 426.17965 864.66052 429.3125 865.46875 C 432.16251 866.20401 435.02581 867.14145 437.96875 867.09375 C 439.44022 867.06985 440.92545 866.79762 442.25 866.15625 C 443.28051 863.25596 447.8273 862.25304 448.34375 859.21875 C 448.55405 857.30335 447.29704 850.83658 448.34375 849.21875 L 458.96875 849.21875 L 458.96875 833.28125 L 448.34375 833.28125 L 448.34375 812.03125 L 458.96875 812.03125 L 458.96875 796.09375 L 448.34375 796.09375 C 447.47706 795.37776 449.20942 788.81054 448.34375 788.09375 C 443.61452 784.17788 436.30125 786.10055 431.59375 782.15625 C 430.91963 781.59142 430.2477 781.02554 429.5 780.5625 C 428.7523 780.09946 427.90396 779.73379 427.03125 779.625 C 425.77506 779.46841 424.53161 779.84362 423.34375 780.28125 C 422.15589 780.71888 420.97383 781.20978 419.71875 781.375 C 418.36839 781.55277 416.95826 781.3161 415.75 780.6875 C 414.54174 780.05885 413.54633 779.04599 412.90625 777.84375 C 412.63087 777.32652 412.42167 776.78657 412.125 776.28125 C 411.82833 775.77593 411.41449 775.29122 410.875 775.0625 C 410.47845 774.89438 410.05179 774.8705 409.625 774.8125 C 407.89743 774.57771 406.28341 773.82246 404.78125 772.9375 C 403.27909 772.05254 401.85097 771.03994 400.28125 770.28125 C 399.02587 769.67448 397.69724 769.21469 396.5 768.5 C 396.3379 768.4032 396.14991 768.3031 395.96875 768.25 C 395.80473 768.2019 395.63126 768.1971 395.46875 768.25 C 395.36066 768.2852 395.26789 768.35583 395.1875 768.4375 L 395.1875 748.25 L 306.625 748.25 L 306.625 769.5 L 200.3125 769.5 L 200.3125 748.25 L 111.71875 748.25 z M 226.875 875.8125 L 280 875.8125 L 280 897.0625 L 226.875 897.0625 L 226.875 875.8125 z "
       id="rect3835" />
    <rect
       transform="matrix(0,-1,1,0,0,0)"
       y="608.19415"
       x="-703.76569"
       height="53.125"
       width="21.25"
       id="rect3853"
       style="fill:#808000;fill-opacity:0.37037036;stroke:none" />
    <path
       inkscape:connector-curvature="0"
       id="path4301"
       d="m 633.82756,1198.0077 6.8124,-16.3125 1.9688,-11.75 -0.3125,-4.375 1.5,-0.1563 17.5313,-2.375 0.7812,4.3125 4.9375,10.8125 10.8437,14.0313 10.9688,-2.9688 2.4375,-17.4687 -1.1875,-11.8438 -1.5,-4.2187 1.4062,-0.5625 16.4063,-6.75 1.875,4 7.5313,9.1875 14.0312,10.6562 9.9375,-5.6562 -2.2813,-17.5625 -4.1562,-11.125 -2.5,-3.6875 1.1875,-0.8438 14.0937,-10.8125 2.8438,3.3438 9.625,6.9062 16.375,6.75 8.0938,-8.0625 -6.75,-16.4062 -6.9063,-9.625 -3.375,-2.9063 0.9375,-1.1875 10.8438,-14.0312 3.5937,2.5312 11.125,4.1563 17.5625,2.25 5.625,-9.875 -10.65625,-14.0938 -9.15625,-7.5312 -4.09375,-1.9688 0.65625,-1.3125 6.8125,-16.375 4.15625,1.4688 11.8125,1.1875 17.5,-2.3438 2.96875,-11.0625 -14.03125,-10.8125 -10.8125,-4.875 -4.375,-0.8438 0.21875,-1.5 2.34375,-17.62492 4.40625,0.375 11.75,-1.9375 16.3125,-6.84375 0,-5.625 -88.1563,0 c 0,69.17857 -56.07129,125.24997 -125.25,125.24997 l 0,88.0938 5.6876,0 z"
       style="fill:#808000;fill-opacity:0.37037036;stroke:none" />
    <path
       style="fill:#808000;fill-opacity:0.37037036;stroke:none"
       d="M 182.96875 974.5625 C 182.96875 1044.3871 126.35582 1101 56.53125 1101 L 45.90625 1101 L 45.90625 1116.9375 L 35.28125 1116.9375 L 35.28125 1138.1875 L 45.90625 1138.1875 L 45.90625 1154.125 L 56.53125 1154.125 C 79.22282 1182.4994 73.247122 1155.5152 89.75 1153.0312 L 90.53125 1157.3438 L 95.46875 1168.1562 L 106.28125 1182.1875 L 117.25 1179.2188 L 119.6875 1161.6562 L 118.5 1149.9062 L 117 1145.6562 L 118.4375 1145.125 L 134.8125 1138.3125 L 136.6875 1142.2812 L 144.21875 1151.5312 L 158.25 1162.2188 L 168.1875 1156.4688 L 165.9375 1139 L 161.6875 1127.875 L 159.1875 1124.1875 L 160.4375 1123.3438 L 174.53125 1112.5 L 177.375 1115.875 L 187 1122.7812 L 203.375 1129.5312 L 211.46875 1121.4375 L 204.71875 1105.0625 L 197.8125 1095.4375 L 194.4375 1092.5312 L 195.40625 1091.3438 L 206.21875 1077.25 L 209.8125 1079.75 L 220.9375 1083.9688 L 238.4375 1086.25 L 244.15625 1076.3125 L 233.5 1062.2812 L 224.25 1054.75 L 220.25 1052.7812 L 220.875 1051.4688 L 227.6875 1035.0625 L 231.84375 1036.4688 L 243.6875 1037.75 L 251.4375 1036.6562 L 259.1875 1037.75 L 271.03125 1036.4688 L 275.25 1035 L 275.8125 1036.4688 L 282.5625 1052.875 L 278.5625 1054.75 L 269.375 1062.2812 L 258.71875 1076.3125 L 264.375 1086.25 L 281.90625 1083.9688 L 293.0625 1079.75 L 296.71875 1077.25 L 297.59375 1078.5 L 308.40625 1092.5312 L 305.03125 1095.4375 L 298.15625 1105.0625 L 291.40625 1121.4375 L 299.46875 1129.5312 L 315.84375 1122.7812 L 325.5 1115.875 L 328.40625 1112.5 L 329.5625 1113.4375 L 343.59375 1124.2812 L 341.09375 1127.875 L 336.9375 1139 L 334.65625 1156.4688 L 344.625 1162.2188 L 358.65625 1151.5312 L 366.1875 1142.2812 L 368.125 1138.3125 L 369.46875 1138.9375 L 385.84375 1145.75 L 384.375 1149.9062 L 383.1875 1161.6562 L 385.625 1179.2188 L 396.59375 1182.1875 L 407.40625 1168.1562 L 412.34375 1157.3438 L 413.21875 1152.9688 C 427.14526 1128.8474 430.01173 1182.3248 446.3125 1154.125 L 456.9375 1154.125 L 456.9375 1138.1875 L 446.3125 1138.1875 L 446.3125 1116.9375 L 456.9375 1116.9375 L 456.9375 1101 L 446.3125 1101 C 376.48793 1101 319.875 1044.3871 319.875 974.5625 L 182.96875 974.5625 z M 251.4375 987.46875 L 261 989.0625 L 265.46875 988.75 L 265.625 990.25 L 267.875 1007.7812 L 263.59375 1008.5625 L 252.75 1013.5312 L 251.4375 1014.5625 L 250.09375 1013.5312 L 239.28125 1008.5938 L 234.90625 1007.7188 L 235.125 1006.3125 L 237.46875 988.65625 L 241.875 989.0625 L 251.4375 987.46875 z "
       id="rect3869" />
    <rect
       transform="matrix(0,-1,1,0,0,0)"
       y="224.87033"
       x="-974.56097"
       height="53.125"
       width="21.25"
       id="rect3871"
       style="fill:#808000;fill-opacity:0.37037036;stroke:none" />
    <path
       style="fill:#808000;fill-opacity:0.37037036;stroke:none"
       d="M 163.0625 347.75 L 161.3125 351.9375 L 160.8125 354.96875 L 160.90625 356.09375 L 160.53125 356.125 L 156 356.75 L 155.8125 355.625 L 154.53125 352.84375 L 151.75 349.25 L 148.9375 350.03125 L 148.3125 354.5 L 148.625 357.53125 L 149 358.625 L 148.65625 358.78125 L 144.4375 360.5 L 143.96875 359.46875 L 142.03125 357.125 L 138.40625 354.375 L 135.875 355.84375 L 136.4375 360.34375 L 137.5 363.1875 L 138.15625 364.15625 L 137.84375 364.375 L 134.21875 367.15625 L 133.5 366.28125 L 131.03125 364.5 L 126.8125 362.78125 L 124.75 364.84375 L 126.46875 369.0625 L 128.25 371.53125 L 129.125 372.28125 L 128.875 372.59375 L 126.09375 376.1875 L 125.1875 375.53125 L 122.3125 374.46875 L 117.8125 373.875 L 116.375 376.4375 L 119.09375 380.0625 L 121.4375 381.96875 L 122.5 382.5 L 122.34375 382.8125 L 120.59375 387.03125 L 119.53125 386.65625 L 116.46875 386.34375 L 112 386.9375 L 111.21875 389.78125 L 114.84375 392.5625 L 117.59375 393.8125 L 118.75 394.03125 L 118.6875 394.40625 L 118.0625 398.9375 L 116.9375 398.84375 L 113.9375 399.34375 L 109.75 401.09375 L 109.75 404.03125 L 113.9375 405.78125 L 116.9375 406.28125 L 118.09375 406.1875 L 118.125 406.5625 L 118.71875 411.09375 L 117.59375 411.28125 L 114.84375 412.5625 L 111.21875 415.34375 L 112 418.15625 L 116.46875 418.78125 L 119.53125 418.4375 L 120.59375 418.0625 L 120.75 418.4375 L 122.46875 422.65625 L 121.4375 423.15625 L 119.09375 425.0625 L 116.375 428.6875 L 117.8125 431.21875 L 122.3125 430.65625 L 125.1875 429.5625 L 126.125 428.90625 L 126.34375 429.25 L 129.125 432.84375 L 128.25 433.59375 L 126.46875 436.0625 L 124.75 440.28125 L 126.8125 442.34375 L 131.03125 440.625 L 133.5 438.84375 L 134.25 437.96875 L 134.5625 438.21875 L 138.15625 441 L 137.5 441.90625 L 136.4375 444.78125 L 135.875 449.28125 L 138.40625 450.75 L 142.03125 448 L 143.96875 445.625 L 144.46875 444.59375 L 144.8125 444.75 L 149 446.5 L 148.625 447.5625 L 148.3125 450.59375 L 148.9375 455.09375 L 151.75 455.875 L 154.53125 452.28125 L 155.8125 449.5 L 156.03125 448.375 L 156.40625 448.4375 L 160.90625 449.03125 L 160.8125 450.15625 L 161.3125 453.1875 L 163.0625 457.34375 L 166 457.34375 L 167.75 453.1875 L 168.25 450.15625 L 168.15625 449 L 168.5625 448.96875 L 173.0625 448.375 L 173.25 449.5 L 174.53125 452.28125 L 177.3125 455.875 L 180.125 455.09375 L 180.75 450.59375 L 180.4375 447.5625 L 180.0625 446.5 L 180.4375 446.34375 L 184.625 444.59375 L 185.125 445.625 L 187.0625 448 L 190.65625 450.75 L 193.21875 449.28125 L 192.625 444.78125 L 191.53125 441.90625 L 190.90625 440.96875 L 191.21875 440.75 L 194.84375 437.96875 L 195.5625 438.84375 L 198.03125 440.625 L 201.5625 442.0625 L 203.25 441.34375 L 203.78125 440.8125 L 203.53125 440.59375 L 199.90625 437.8125 L 198.03125 436.375 L 198.65625 434.09375 L 199.4375 431.25 L 200.03125 428.96875 L 202.375 428.65625 L 206.875 428.0625 L 207.28125 428 L 207.6875 428.03125 L 207.6875 428 L 207.375 427.75 L 207.125 427.40625 L 204.375 423.78125 L 202.96875 421.90625 L 204.125 419.875 L 205.59375 417.34375 L 206.75 415.28125 L 209.125 415.59375 L 213.625 416.1875 L 214.03125 416.21875 L 214.40625 416.375 L 214.53125 416.40625 L 214.46875 416.34375 L 214.21875 416 L 214.0625 415.625 L 212.4375 411.71875 L 211.46875 411.28125 L 210.34375 411.0625 L 210.40625 410.71875 L 211 406.1875 L 212.125 406.28125 L 214.84375 405.84375 L 215.1875 405.5 L 216.84375 403.8125 L 218.375 404.4375 L 219.34375 404.03125 L 219.34375 401.09375 L 215.15625 399.34375 L 212.125 398.84375 L 210.96875 398.9375 L 210.9375 398.53125 L 210.34375 394.03125 L 211.46875 393.8125 L 214.25 392.5625 L 217.84375 389.78125 L 217.0625 386.96875 L 212.59375 386.34375 L 209.5625 386.65625 L 208.46875 387.03125 L 208.3125 386.65625 L 206.59375 382.46875 L 207.59375 381.96875 L 209.96875 380.0625 L 212.71875 376.4375 L 211.25 373.90625 L 206.75 374.46875 L 203.90625 375.53125 L 202.9375 376.1875 L 202.71875 375.875 L 199.9375 372.25 L 200.8125 371.53125 L 202.59375 369.0625 L 204.3125 364.84375 L 202.25 362.78125 L 198.03125 364.5 L 195.5625 366.28125 L 194.8125 367.15625 L 194.5 366.90625 L 190.90625 364.125 L 191.53125 363.1875 L 192.625 360.34375 L 193.21875 355.84375 L 190.65625 354.375 L 187.0625 357.125 L 185.125 359.46875 L 184.625 360.53125 L 184.28125 360.375 L 180.0625 358.625 L 180.4375 357.5625 L 180.75 354.5 L 180.125 350.03125 L 177.3125 349.25 L 174.53125 352.84375 L 173.25 355.625 L 173.03125 356.75 L 172.6875 356.6875 L 168.15625 356.09375 L 168.25 354.96875 L 167.75 351.9375 L 166 347.75 L 163.0625 347.75 z M 209.53125 424.71875 L 209.9375 425.25 L 210.40625 425.625 L 209.96875 425.0625 L 209.53125 424.71875 z "
       id="path3979" />
    <path
       inkscape:connector-curvature="0"
       id="path3981"
       d="m 253.92701,392.97851 -1.75108,4.1865 -0.50318,3.01911 0.0805,1.12714 -0.38241,0.0403 -4.50856,0.60383 -0.20127,-1.10701 -1.26801,-2.77759 -2.77758,-3.60281 -2.81785,0.76485 -0.62395,4.48841 0.30191,3.03924 0.38241,1.08688 -0.36228,0.14089 -4.20663,1.73096 -0.48307,-1.0265 -1.93223,-2.35491 -3.6028,-2.73732 -2.55618,1.44917 0.58369,4.50854 1.06676,2.8581 0.64406,0.94599 -0.30191,0.2214 -3.62293,2.77758 -0.72459,-0.86548 -2.47567,-1.77121 -4.20663,-1.73096 -2.07312,2.07312 1.73095,4.20663 1.77122,2.47568 0.86548,0.74471 -0.24153,0.30191 -2.77759,3.60281 -0.92586,-0.64408 -2.85809,-1.06675 -4.50854,-0.58369 -1.44918,2.53605 2.73733,3.62294 2.35491,1.93223 1.04663,0.50318 -0.16102,0.34217 -1.75109,4.20663 -1.06675,-0.38242 -3.03924,-0.30191 -4.48842,0.60382 -0.76484,2.83797 3.60281,2.77758 2.77758,1.2479 1.12714,0.2214 -0.0603,0.38242 -0.60382,4.52866 -1.12714,-0.10061 -3.01911,0.50316 -4.18651,1.75112 0,2.91844 4.18651,1.75112 3.01911,0.50315 1.14726,-0.0805 0.0403,0.38245 0.58369,4.50855 -1.107,0.20127 -2.77759,1.26799 -3.60281,2.77758 0.76484,2.81785 4.48842,0.62397 3.03924,-0.32204 1.08688,-0.38244 0.14089,0.38244 1.73096,4.20663 -1.0265,0.48305 -2.3549,1.93222 -2.73733,3.60286 1.44917,2.55615 4.50854,-0.58369 2.8581,-1.08687 0.94598,-0.64408 0.2214,0.32204 2.77759,3.60278 -0.86548,0.74475 -1.77121,2.47565 -1.73096,4.20665 2.07312,2.0731 4.20664,-1.73095 2.47567,-1.77122 0.74471,-0.86546 0.30191,0.24154 3.60282,2.77758 -0.64408,0.92586 -1.06677,2.85809 -0.58368,4.4884 2.55617,1.46933 3.60281,-2.73734 1.93223,-2.37504 0.5032,-1.02652 0.34215,0.16101 4.20665,1.75113 -0.38244,1.06671 -0.30191,3.01912 0.62396,4.50854 2.81784,0.76485 2.77758,-3.60278 1.26804,-2.77766 0.22138,-1.12713 0.36231,0.0606 4.52866,0.60382 -0.10063,1.12713 0.50318,3.01912 1.75108,4.16641 2.91849,0 1.75108,-4.16641 0.50318,-3.01912 -0.0805,-1.14729 0.38241,-0.0399 4.50854,-0.58374 0.20127,1.10698 1.26804,2.77766 2.77757,3.60278 2.81785,-0.76486 0.62395,-4.50853 -0.30191,-3.01912 -0.38244,-1.08687 0.36231,-0.14087 4.20663,-1.75111 0.48305,1.02652 1.93225,2.37503 3.6028,2.73735 2.55618,-1.46934 -0.58368,-4.48837 -1.0869,-2.85811 -0.64408,-0.94602 0.32204,-0.22136 3.62294,-2.7776 0.72459,0.86546 2.47567,1.77122 4.20662,1.73095 2.07313,-2.0731 -1.73095,-4.20666 -1.77122,-2.47565 -0.86546,-0.74474 0.24151,-0.30189 2.77758,-3.62293 0.92586,0.64408 2.85811,1.08687 4.4884,0.58369 1.46931,-2.55616 -2.73731,-3.60285 -2.37504,-1.93223 -1.02652,-0.50316 0.16103,-0.3422 1.75108,-4.20659 1.06676,0.36228 3.03923,0.32204 4.48843,-0.62398 0.76483,-2.81785 -3.60281,-2.77758 -2.77758,-1.26798 -1.12714,-0.22143 0.0604,-0.36231 0.60382,-4.52863 1.12713,0.10061 3.01912,-0.50316 4.18652,-1.75111 0,-2.91845 -4.18652,-1.75111 -3.01912,-0.50316 -1.14724,0.0805 -0.0403,-0.38245 -0.58369,-4.50853 1.107,-0.2214 2.77758,-1.2479 3.60281,-2.77759 -0.76485,-2.83796 -4.4884,-0.60382 -3.03926,0.30191 -1.08687,0.38242 -0.1409,-0.3623 -1.73095,-4.20663 1.00637,-0.48306 2.37503,-1.93223 2.73734,-3.62293 -1.4693,-2.53606 -4.48843,0.5837 -2.85809,1.06675 -0.94599,0.64408 -0.22138,-0.30191 -2.77761,-3.62294 0.86549,-0.72459 1.77122,-2.47567 1.73095,-4.20663 -2.07313,-2.07312 -4.20662,1.73096 -2.47567,1.77121 -0.74472,0.86548 -0.30191,-0.24153 -3.62294,-2.77759 0.64408,-0.92586 1.08687,-2.85809 0.58371,-4.50854 -2.55617,-1.44918 -3.60283,2.73733 -1.93223,2.35491 -0.50318,1.04663 -0.34218,-0.16102 -4.20662,-1.75109 0.38241,-1.06675 0.30194,-3.03924 -0.62395,-4.48842 -2.81785,-0.76484 -2.77758,3.60281 -1.26804,2.77758 -0.2214,1.12714 -0.36228,-0.0603 -4.52867,-0.60382 0.10064,-1.12714 -0.50319,-3.01911 -1.75108,-4.1865 -2.91849,0 z"
       style="fill:#808000;fill-opacity:0.37037036;stroke:none" />
    <path
       style="font-size:medium;font-style:normal;font-variant:normal;font-weight:normal;font-stretch:normal;text-indent:0;text-align:start;text-decoration:none;line-height:normal;letter-spacing:normal;word-spacing:normal;text-transform:none;direction:ltr;block-progression:tb;writing-mode:lr-tb;text-anchor:start;baseline-shift:baseline;color:#000000;fill:#000000;fill-opacity:1;stroke:none;stroke-width:17.71653557;marker:none;visibility:visible;display:inline;overflow:visible;enable-background:accumulate;font-family:Sans;-inkscape-font-specification:Sans"
       d="m 132.29267,445.56377 -0.0625,0.0625 -0.34375,0.25 -0.375,0.15625 -2.90625,1.1875 c -3.09878,10.52719 -3.07468,18.40562 -2.07392,27.90498 2.42954,23.06166 14.88377,41.92089 27.34375,59.03125 12.45998,17.11036 21.02947,28.83227 26.28125,44.125 0.97016,2.82503 1.72973,5.61629 2.25,8.4375 3.81574,-7.27282 7.96482,-13.90161 12.25,-20.03125 -7.28387,-17.17324 -15.58571,-28.03554 -26.4375,-42.9375 -12.05806,-16.55844 -22.20045,-32.79384 -24.0625,-50.46875 -0.63134,-5.9928 -1.25638,-10.17585 0.23017,-16.93623 l -0.4375,-3.125 -0.0625,-0.4375 0.0312,-0.40625 -0.28125,0.3125 -0.3125,0.25 -3.625,2.75 -1.90625,1.4375 -2.03125,-1.1875 -2.53125,-1.46875 -2.03125,-1.1875 0.28125,-2.3125 0.5625,-4.5 0.0625,-0.40625 0.15625,-0.375 z m 129.83233,57.27998 -0.0312,0.125 -0.0625,0.40625 -0.15625,0.375 -1.75,4.1875 -0.9375,2.15625 -2.34375,0 -2.90625,0 -2.375,0 -0.3125,-0.71875 c -3.83504,8.79044 -10.05851,15.11649 -17.875,24.21875 -10.05333,11.70705 -22.52771,22.55654 -33.90625,39.03125 -0.0596,0.0863 -0.12794,0.16348 -0.1875,0.25 -2.85658,4.14985 -5.6552,8.53684 -8.3125,13.1875 -0.70256,1.22958 -1.37885,2.4819 -2.0625,3.75 -0.66328,1.23033 -1.3252,2.48204 -1.96875,3.75 -0.0212,0.0417 -0.0413,0.0833 -0.0625,0.125 0.001,0.0102 -10e-4,0.021 0,0.0312 -4.37315,8.63729 -8.25748,18.16394 -11.375,28.78125 8.03115,-1.23402 16.38342,-2.00324 24.96875,-2.28125 2.72798,-7.64208 3.99782,-15.08225 4.03125,-22.25 12.23173,-22.65144 28.33091,-36.56226 42.3125,-52.84375 10.1307,-11.79714 19.29944,-21.94089 23.71875,-37 l -1.4375,0.375 -2.28125,0.625 -1.46875,-1.875 -2.78125,-3.59375 -0.25,-0.34375 -0.15625,-0.375 z"
       id="path3985"
       inkscape:connector-curvature="0"
       sodipodi:nodetypes="cccccsssccssccccccccccccccccccccccccccsccssccccccscccccccc" />
    <path
       sodipodi:type="arc"
       style="fill:#800000;fill-opacity:0.37037036;stroke:none"
       id="path4038"
       sodipodi:cx="362.13968"
       sodipodi:cy="384.65134"
       sodipodi:rx="6.5659914"
       sodipodi:ry="6.5659914"
       d="m 368.70567,384.65134 a 6.5659914,6.5659914 0 1 1 -13.13198,0 6.5659914,6.5659914 0 1 1 13.13198,0 z"
       transform="matrix(1.652714,0,0,1.652714,-303.20448,-36.137285)" />
    <path
       transform="matrix(1.652714,0,0,1.652714,-263.30345,-127.30355)"
       d="m 368.70567,384.65134 a 6.5659914,6.5659914 0 1 1 -13.13198,0 6.5659914,6.5659914 0 1 1 13.13198,0 z"
       sodipodi:ry="6.5659914"
       sodipodi:rx="6.5659914"
       sodipodi:cy="384.65134"
       sodipodi:cx="362.13968"
       id="path4066"
       style="fill:#800000;fill-opacity:0.37037036;stroke:none"
       sodipodi:type="arc" />
    <path
       sodipodi:type="arc"
       style="fill:#800000;fill-opacity:0.37037036;stroke:none"
       id="path4068"
       sodipodi:cx="362.13968"
       sodipodi:cy="384.65134"
       sodipodi:rx="6.5659914"
       sodipodi:ry="6.5659914"
       d="m 368.70567,384.65134 a 6.5659914,6.5659914 0 1 1 -13.13198,0 6.5659914,6.5659914 0 1 1 13.13198,0 z"
       transform="matrix(1.652714,0,0,1.652714,-196.88592,-63.158863)" />
    <path
       transform="matrix(1.652714,0,0,1.652714,-243.35294,-165.18427)"
       d="m 368.70567,384.65134 a 6.5659914,6.5659914 0 1 1 -13.13198,0 6.5659914,6.5659914 0 1 1 13.13198,0 z"
       sodipodi:ry="6.5659914"
       sodipodi:rx="6.5659914"
       sodipodi:cy="384.65134"
       sodipodi:cx="362.13968"
       id="path4070"
       style="fill:#800000;fill-opacity:0.37037036;stroke:none"
       sodipodi:type="arc" />
    <path
       sodipodi:type="arc"
       style="fill:#800000;fill-opacity:0.37037036;stroke:none"
       id="path4072"
       sodipodi:cx="362.13968"
       sodipodi:cy="384.65134"
       sodipodi:rx="6.5659914"
       sodipodi:ry="6.5659914"
       d="m 368.70567,384.65134 a 6.5659914,6.5659914 0 1 1 -13.13198,0 6.5659914,6.5659914 0 1 1 13.13198,0 z"
       transform="matrix(1.652714,0,0,1.652714,-425.65171,-135.6775)" />
    <path
       transform="matrix(1.652714,0,0,1.652714,-433.19824,-81.460693)"
       d="m 368.70567,384.65134 a 6.5659914,6.5659914 0 1 1 -13.13198,0 6.5659914,6.5659914 0 1 1 13.13198,0 z"
       sodipodi:ry="6.5659914"
       sodipodi:rx="6.5659914"
       sodipodi:cy="384.65134"
       sodipodi:cx="362.13968"
       id="path4074"
       style="fill:#800000;fill-opacity:0.37037036;stroke:none"
       sodipodi:type="arc" />
    <path
       sodipodi:type="arc"
       style="fill:#800000;fill-opacity:0.37037036;stroke:none"
       id="path4076"
       sodipodi:cx="362.13968"
       sodipodi:cy="384.65134"
       sodipodi:rx="6.5659914"
       sodipodi:ry="6.5659914"
       d="m 368.70567,384.65134 a 6.5659914,6.5659914 0 1 1 -13.13198,0 6.5659914,6.5659914 0 1 1 13.13198,0 z"
       transform="matrix(1.652714,0,0,1.652714,-507.12681,-201.10355)" />
    <path
       style="font-size:medium;font-style:normal;font-variant:normal;font-weight:normal;font-stretch:normal;text-indent:0;text-align:start;text-decoration:none;line-height:normal;letter-spacing:normal;word-spacing:normal;text-transform:none;direction:ltr;block-progression:tb;writing-mode:lr-tb;text-anchor:start;baseline-shift:baseline;color:#000000;fill:#000000;fill-opacity:1;fill-rule:nonzero;stroke:none;stroke-width:5.40813541;marker:none;visibility:visible;display:inline;overflow:visible;enable-background:accumulate;font-family:Sans;-inkscape-font-specification:Sans"
       d="m 202.9557,625.90528 0.0773,7.50226 4.524,-0.0434 0.0387,0 0.0387,0 5.95466,0.0867 0,-0.0434 5.76134,0.26019 0.0773,0 0.88933,0.0867 0.42534,-7.50225 -0.96667,-0.0867 -0.0387,0 -0.0387,0 -5.95467,-0.21682 -0.0387,-0.0434 -0.0387,0 -6.032,-0.0434 -0.0387,0 -0.0387,0 z m -13.41733,0.69385 -0.0387,0 -0.0387,0 -5.8,0.60712 -0.0387,0 -0.0387,0 -5.64533,0.73722 -0.0773,0 -0.0387,0 -1.508,0.21682 0.96666,7.45889 1.392,-0.21682 5.60667,-0.73722 0.0773,0 5.60667,-0.56375 0.0773,0 4.408,-0.34693 -0.42533,-7.45889 z m 39.43999,7.89255 1.856,0.17346 0.0773,0 5.568,0.73722 0,-0.0434 5.49066,0.91068 0,-0.0434 4.13734,0.82395 1.12133,-7.41552 -4.25333,-0.78059 -0.0387,-0.0434 -0.0387,0 -5.568,-0.86731 -0.0387,0 -0.0387,0 -5.684,-0.73722 -0.0387,0 -0.0387,0 -1.89467,-0.21683 z m -62.25333,-4.64013 -0.0387,0.0434 -0.0387,0 -5.336,1.17087 -0.0387,0 -0.0387,0 -5.18134,1.34434 -0.0387,0 -0.0387,0 -5.06533,1.47443 -0.0387,0 -0.0773,0 -0.696,0.21683 1.856,7.24206 0.61866,-0.21683 0.0773,0 4.872,-1.43107 0.0773,0 5.02667,-1.2576 5.22,-1.17087 0.0773,0 0.77333,-0.17346 -1.12133,-7.37216 z m 87.812,9.06342 3.016,0.73722 0,0.0434 4.94933,1.3877 0,0.0434 4.83334,1.5178 0.0773,0.0434 3.75067,1.34434 2.01066,-7.15533 -3.78933,-1.3877 -0.0773,0 -0.0387,0 -4.91067,-1.60453 -0.0387,0 -0.0387,0 -5.06533,-1.47443 -0.0387,0 -0.0387,0 -3.132,-0.82395 z m -113.48666,-1.69126 -0.0387,0 -0.0773,0.0434 -4.56267,1.82135 -0.0773,0 -0.0387,0.0434 -4.408,1.95145 -0.0773,0 -0.0387,0.0434 -4.25333,2.03818 -0.0773,0.0434 -0.0387,0 -2.436,1.30097 2.9,6.80841 2.28133,-1.25761 0.116,-0.0434 4.06,-1.95146 0.0773,-0.0434 4.25334,-1.86473 0.0773,-0.0434 4.408,-1.73463 0.0773,-0.0434 0.464,-0.17347 -2.01066,-7.15533 z m 138.11733,10.06083 1.624,0.73722 0.116,0.0434 4.02133,1.95146 0.116,0.0434 3.944,2.12492 0,-0.0434 3.67333,2.16828 0.116,0.0867 1.77867,1.1275 3.32533,-6.50484 -1.89466,-1.21424 -0.0387,-0.0434 -0.0773,-0.0434 -3.86667,-2.25502 -0.0773,-0.0434 -0.0387,0 -4.06,-2.21165 -0.0773,0 -0.0387,-0.0434 -4.25333,-2.03818 -0.0773,-0.0434 -0.0387,0 -1.70134,-0.78058 z m -163.676,2.9055 -0.0387,0.0434 -0.0773,0.0434 -3.48,2.47184 -0.0773,0.0434 -0.0387,0.0434 -3.28667,2.55858 -0.0773,0.0867 -0.0387,0.0434 -3.05466,2.64531 -0.0773,0.0867 -0.0773,0.0434 -2.82267,2.7754 -0.0773,0.0434 -0.0387,0.0867 -0.116,0.1301 4.292,4.94368 0.348,0.43366 0.0387,0 0.0387,-0.0867 0.0387,-0.0434 2.552,-2.47184 0.15467,-0.1301 2.784,-2.42847 0.116,-0.0867 3.016,-2.38511 0.0773,-0.0434 0.0387,-0.0434 3.20933,-2.29838 0.15467,-0.0867 1.31467,-0.86731 -3.32534,-6.50485 z m 186.18,10.45112 1.044,0.82395 0.116,0.0867 2.784,2.42847 0.116,0.1301 2.552,2.47184 0.15466,0.1301 2.28134,2.51521 0.0387,0.0434 0.116,0.1301 2.04934,2.55857 0.15466,0.17346 0.73467,1.08414 5.25867,-4.68349 -0.88934,-1.2576 -0.0773,-0.0867 -0.0773,-0.0867 -2.35867,-2.9055 -0.0387,-0.0867 -0.0773,-0.0867 -2.59067,-2.81877 -0.0773,-0.0867 -0.0773,-0.0434 -2.82267,-2.7754 -0.0773,-0.0434 -0.0387,-0.0867 -3.05467,-2.64531 -0.0773,-0.0434 -0.0773,-0.0867 -1.16,-0.91068 z m -206.789332,9.62717 -0.03867,0.0867 -0.03867,0.0867 -0.966667,1.5178 -0.03867,0.0434 -0.03867,0.0434 -0.889333,1.56116 -0.03867,0.0434 -0.03867,0.0867 -0.811999,1.5178 -0.03867,0.0867 -0.03867,0.0434 -0.734666,1.56116 -0.03867,0.0867 -0.03867,0.0867 -0.696,1.56116 -0.03867,0.0867 0,0.0434 -0.618667,1.60453 -0.03867,0.0867 -0.03867,0.0867 -0.541334,1.60453 -0.03867,0.0867 0,0.0434 -0.502667,1.64789 -0.03867,0.0867 0,0.0867 -0.425333,1.60452 0,0.0867 -0.03867,0.0867 -0.309333,1.64789 -0.03867,0.0867 0,0.1301 -0.07733,0.30356 6.612,1.30097 0,-0.1301 0.03867,-0.17346 0.270667,-1.30097 0,-0.0434 0.03867,-0.13009 0.386666,-1.47444 0.348,-1.2576 0.07733,-0.17346 0.502666,-1.43107 0.502667,-1.30097 0.03867,-0.13009 0.58,-1.30097 0.03867,-0.1301 0.657334,-1.30097 0.03867,-0.1301 0.696,-1.30097 0.07733,-0.13009 0.734666,-1.30097 0.07733,-0.0867 0.773325,-1.25761 0.116,-0.13009 0.85067,-1.25761 -5.219995,-4.64012 z"
       id="path4086"
       inkscape:connector-curvature="0"
       sodipodi:nodetypes="ccccccccccccccccccccccccccccccccccccccccccccccccccccccccccccccccccccccccccccccccccccccccccccccccccccccccccccccccccccccccccccccccccccccccccccccccccccccccccccccccccccccccccccccccccccccccccccccccccccccccccccccccccccccccccccccccccccccccccccccccccccccccccccccccccccccccccccccccccccc" />
    <rect
       style="fill:#800000;fill-opacity:0.37037036;stroke:none"
       id="rect4297"
       width="168.31717"
       height="126.43903"
       x="277.99533"
       y="974.56097" />
    <g
       id="g4328"
       inkscape:transform-center-x="-4.7474547"
       inkscape:transform-center-y="-70.312309"
       transform="matrix(0.96592583,0.25881905,-0.25881905,0.96592583,200.81197,-160.28699)">
      <rect
         style="fill:#808000;fill-opacity:0.37037036;stroke:none"
         id="rect4305"
         width="21.25"
         height="53.125"
         x="687.90625"
         y="502.95166" />
    </g>
    <path
       style="fill:#808000;fill-opacity:0.37037036;stroke:none"
       d="m 265.8125,30.625 -25.5,44.15625 22.0625,12.75 -17.03125,29.5 c 14.38429,2.40008 43.33016,-7.84484 72.46875,-16.21875 -1.00041,-0.25767 -1.94637,-0.59371 -2.65625,-1.0625 -2.10736,-1.39167 -0.54717,-4.04797 -3.59375,-6.28125 C 308.51592,91.23547 306.306,97.6894 298.25,88 c -8.056,-9.689395 -13.47313,7.20555 -20.34375,1.90625 -6.87062,-5.299304 4.98527,-29.588331 19.28125,-23.59375 11.62777,3.864135 5.08429,4.325272 11.03125,7.375 1.66372,0.644183 0.61308,12.017069 4.84375,4.90625 1.84374,-3.847441 4.34066,-6.431344 5.4375,-10.625 1.09684,-4.193656 4.2474,-10.064171 2.21875,-12 -1.27313,-1.214879 -5.81414,-3.920797 -7.21875,-5.9375 l -3.53125,6.09375 -44.15625,-25.5 z m 56.90625,3.40625 -6.375,11.03125 c 1.49293,4.47e-4 3.63225,0.520913 5.625,1.5625 2.04584,1.881005 3.98379,2.988034 7.53125,1.65625 1.18481,0.04063 4.35119,0.65996 5.5,1.21875 0.58379,0.76893 0.54795,-0.213062 -0.21875,3.75 -0.7667,3.963062 -3.20373,3.609944 -3.3125,5.125 -0.10877,1.515056 0.66706,5.83035 1.78125,7.8125 1.32739,2.231111 6.60691,4.427745 3.46875,8.28125 -1.38054,0.778016 -3.15796,-9.074949 -4.59375,-2.125 0.5088,2.263574 8.50096,5.966895 4.71875,9.5 -1.73812,0.502554 -4.91846,-9.39902 -8.15625,-3.25 -0.45628,1.211049 1.06047,3.039653 1.21875,6.15625 0.15828,3.116597 -2.76981,4.99005 -2.125,5.46875 0.64481,0.4787 4.5229,1.2775 4.46875,2.6875 -0.0541,1.41 -2.42084,1.59317 -3.8125,1.8125 -1.39166,0.21933 -3.00069,-1.93072 -4.25,-1.125 -1.24931,0.80572 -3.56802,3.53562 -2.5625,5.03125 0.21951,0.3265 0.61521,0.59351 1.0625,0.8125 8.36769,-2.33353 16.6998,-4.45391 24.625,-6 l 19.5625,-33.90625 -44.15625,-25.5 z m -7.5625,13.125 -0.375,0.59375 c 0.27055,-0.05452 0.52833,-0.09181 0.875,-0.125 -0.20606,-0.168116 -0.34924,-0.317183 -0.5,-0.46875 z m 28.40625,63.75 c -39.20941,0.24793 -84.11091,27.93134 -101.71875,23.65625 l 39.21875,22.65625 12.75,-22.09375 44.15625,25.5 25.5,-44.1875 -8.0625,-4.65625 c -3.87281,-0.61791 -7.8153,-0.90047 -11.84375,-0.875 z"
       id="rect4345"
       inkscape:connector-curvature="0" />
    <g
       transform="matrix(0.11069078,0,0,0.11069078,271.41317,-16.947523)"
       id="layer1-7"
       inkscape:label="Ebene 1"
       style="fill:#808000;stroke:none" />
    <g
       transform="translate(894.95851,-602.21916)"
       id="layer1-6"
       inkscape:label="Ebene 1">
      <path
         inkscape:connector-curvature="0"
         id="path6062"
         d="m -558.30724,1162.9119 c 4.01018,0.056 5.90553,3.0564 7.92172,6.8336 2.48146,4.6488 -0.38574,18.4467 0.67558,18.5518 1.06133,0.105 5.586,-1.0997 12.4655,0.7772 6.8795,1.8768 20.11112,10.1133 27.05939,13.5297 6.94826,3.4164 17.25699,6.7174 13.38022,7.1504 -3.87676,0.4331 -3.24988,0.268 -3.81438,0.287 -0.5645,0.019 10.94254,2.9958 12.4655,5.2194 1.52295,2.2236 1.35333,1.3023 0,2.804 -1.35334,1.5016 -6.31542,0.6735 -9.27888,0.9625 -2.96345,0.2891 -5.48176,0.3005 -8.50164,0.7713 -3.01988,0.4709 -5.77792,1.741 -9.56585,2.1285 -3.78792,0.3874 -11.07193,-2.5284 -13.04542,-0.1913 -1.97349,2.3371 1.82804,4.3004 0.96256,5.2134 -0.86547,0.9129 -0.44575,-0.9048 -2.21808,-0.287 -1.77233,0.6178 -3.01762,6.0611 -6.28356,6.4749 -3.26595,0.4138 -10.74325,-1.04 -12.65681,-2.5111 -1.91357,-1.471 1.62914,-4.2888 3.57523,-5.1237 1.94609,-0.8349 4.49622,2.1057 5.79332,1.5485 0.60498,-0.2616 2.77084,-2.7403 1.64413,-4.6394 -1.61556,-2.2284 -8.34665,-3.5626 -13.52372,-6.3793 -5.17707,-2.8167 -13.68299,-8.5116 -15.17382,-15.7477 -1.49084,-7.2362 3.35581,-12.4432 5.79929,-16.2381 2.44349,-3.7948 2.85897,-6.5064 0.57993,-8.406 -2.27904,-1.8995 -6.52458,1.2607 -9.03375,1.985 -1.70961,0.5037 -6.03956,3.0455 -6.81566,1.0103 -0.50881,-1.4357 4.49453,-2.9493 6.76186,-5.4106 2.26733,-2.4614 1.39973,-8.105 7.68257,-9.8528 1.17803,-0.3278 2.21934,-0.4733 3.14477,-0.4604 z"
         style="fill:#808000;stroke:none"
         sodipodi:nodetypes="csccscssccccscsscsccsscccccccc" />
    </g>
    <path
       style="fill:#808000;fill-opacity:0.37037036;stroke:none"
       d="m 1581.9594,361.12063 -6.8191,16.3032 -1.9595,11.757 0.3135,4.3894 -1.4892,0.1567 -17.5573,2.3514 -0.7838,-4.3109 -4.9379,-10.8165 -10.8165,-14.0301 -10.9733,2.9784 -2.4298,17.4789 1.1757,11.8354 1.4892,4.2326 -1.4108,0.5487 -16.3815,6.7407 -1.8812,-3.9974 -7.5245,-9.1705 -14.0301,-10.6598 -9.9543,5.6434 2.273,17.5572 4.1542,11.1301 2.5081,3.6839 -1.1757,0.8621 -14.1084,10.8165 -2.8217,-3.3703 -9.6408,-6.8975 -16.3815,-6.7407 -8.0732,8.0732 6.7407,16.3815 6.8975,9.6408 3.3703,2.9001 -0.9405,1.1757 -10.8165,14.0301 -3.6055,-2.5082 -11.1301,-4.1542 -17.5572,-2.273 -5.6434,9.8759 10.6597,14.1085 9.1706,7.5246 4.0758,1.9595 -0.6271,1.3324 -6.8191,16.3816 -4.1542,-1.4893 -11.8354,-1.1757 -17.4789,2.3514 -2.9784,11.0517 14.0301,10.8165 10.8165,4.8596 4.3893,0.8622 -0.235,1.4892 -2.3514,17.6356 -4.3893,-0.3918 -11.7571,1.9594 -16.3032,6.8192 0,11.365 16.3032,6.8193 11.7571,1.9594 4.4676,-0.3136 0.1568,1.4894 2.273,17.5572 -4.3109,0.7838 -10.8165,4.9378 -14.0301,10.8165 2.9785,10.9733 17.4788,2.4299 11.8355,-1.2541 4.2325,-1.4893 0.5487,1.4893 6.7407,16.3815 -3.9974,1.8811 -9.1705,7.5245 -10.6598,14.0303 5.6434,9.9542 17.5573,-2.273 11.13,-4.2325 3.6839,-2.5082 0.8621,1.2541 10.8166,14.03 -3.3704,2.9002 -6.8975,9.6407 -6.7407,16.3817 8.0732,8.0731 16.3815,-6.7407 9.6408,-6.8975 2.9001,-3.3703 1.1757,0.9406 14.0301,10.8165 -2.5082,3.6055 -4.1542,11.13 -2.273,17.4788 9.9543,5.7219 14.0301,-10.6598 7.5245,-9.2489 1.9596,-3.9975 1.3324,0.627 16.3816,6.8193 -1.4893,4.154 -1.1757,11.7571 2.4298,17.5572 10.9733,2.9785 10.8165,-14.03 4.938,-10.8168 0.8621,-4.3893 1.4109,0.2358 17.6356,2.3514 -0.3919,4.3893 1.9595,11.7571 6.8191,16.2249 11.3652,0 6.8191,-16.2249 1.9595,-11.7571 -0.3135,-4.4678 1.4892,-0.1555 17.5572,-2.2732 0.7838,4.3108 4.938,10.8168 10.8165,14.03 10.9733,-2.9785 2.4298,-17.5572 -1.1757,-11.7571 -1.4893,-4.2325 1.4109,-0.5486 16.3815,-6.8192 1.8811,3.9975 7.5246,9.2489 14.0301,10.6598 9.9543,-5.7219 -2.273,-17.4787 -4.2326,-11.1301 -2.5082,-3.684 1.2541,-0.862 14.1085,-10.8166 2.8217,3.3703 9.6408,6.8975 16.3815,6.7407 8.0732,-8.0731 -6.7407,-16.3817 -6.8975,-9.6407 -3.3703,-2.9002 0.9405,-1.1756 10.8165,-14.1085 3.6055,2.5082 11.1301,4.2325 17.4788,2.273 5.7218,-9.9542 -10.6597,-14.0303 -9.2489,-7.5245 -3.9975,-1.9594 0.6271,-1.3326 6.8191,-16.3814 4.1542,1.4108 11.8354,1.2541 17.4789,-2.4299 2.9784,-10.9733 -14.0301,-10.8165 -10.8165,-4.9378 -4.3893,-0.8623 0.235,-1.4109 2.3514,-17.6354 4.3893,0.3918 11.7571,-1.9594 16.3032,-6.8192 0,-11.3651 -16.3032,-6.8192 -11.7571,-1.9594 -4.4676,0.3135 -0.1568,-1.4893 -2.273,-17.5572 4.3109,-0.8622 10.8165,-4.8596 14.0301,-10.8165 -2.9785,-11.0517 -17.4788,-2.3514 -11.8355,1.1757 -4.2325,1.4893 -0.5487,-1.4109 -6.7407,-16.3815 3.919,-1.8811 9.2489,-7.5246 10.6598,-14.1084 -5.7218,-9.876 -17.4789,2.273 -11.13,4.1542 -3.6839,2.5082 -0.8621,-1.1757 -10.8166,-14.1085 3.3704,-2.8217 6.8975,-9.6408 6.7407,-16.3815 -8.0732,-8.0732 -16.3815,6.7407 -9.6408,6.8975 -2.9001,3.3703 -1.1757,-0.9405 -14.1085,-10.8165 2.5082,-3.6055 4.2325,-11.1301 2.2731,-17.5572 -9.9543,-5.6434 -14.0302,10.6598 -7.5245,9.1705 -1.9595,4.0758 -1.3325,-0.6271 -16.3815,-6.8191 1.4892,-4.1541 1.1758,-11.8355 -2.4298,-17.4788 -10.9733,-2.9785 -10.8165,14.0301 -4.938,10.8165 -0.8622,4.3893 -1.4108,-0.235 -17.6356,-2.3514 0.3919,-4.3893 -1.9595,-11.7571 -6.8191,-16.3031 -11.3652,0 z"
       id="path4405"
       inkscape:connector-curvature="0" />
    <path
       style="fill:none;stroke:#000000;stroke-width:1px;stroke-linecap:butt;stroke-linejoin:miter;stroke-opacity:1"
       d="M 273.75134,291.71731 z"
       id="path4409"
       inkscape:connector-curvature="0" />
    <path
       transform="matrix(0.99144486,0.13052619,-0.13052619,0.99144486,0,0)"
       style="fill:#808000;fill-opacity:0.37037036;stroke:none"
       inkscape:transform-center-x="40.797869"
       inkscape:transform-center-y="391.32979"
       d="m 568.58978,-136.97058 21.25984,0 -0.32093,768.72327 -21.25984,0 z"
       id="rect4462"
       inkscape:connector-curvature="0"
       sodipodi:nodetypes="ccccc" />
    <rect
       style="fill:#d40000;fill-opacity:0.37037036;stroke:none"
       id="rect4475"
       width="66.967766"
       height="468.2308"
       x="581.60364"
       y="-61.58292" />
    <rect
       style="fill:#d40000;fill-opacity:0.37037036;stroke:none"
       id="rect4500"
       width="78.791901"
       height="786.6142"
       x="214.05717"
       y="-61.5625" />
    <path
       sodipodi:type="arc"
       style="fill:#808000;fill-opacity:0.37037036000000001;stroke:none"
       id="path4502"
       sodipodi:cx="373.21429"
       sodipodi:cy="-92.280678"
       sodipodi:rx="11.071428"
       sodipodi:ry="11.071428"
       d="m 384.28572,-92.280678 a 11.071428,11.071428 0 1 1 -22.14285,0 11.071428,11.071428 0 1 1 22.14285,0 z"
       transform="matrix(0.48006097,0,0,0.48006097,74.287509,36.547736)" />
    <rect
       style="fill:#808000;fill-opacity:0.37037036;stroke:none"
       id="rect4514"
       width="21.259842"
       height="21.259842"
       x="583.07959"
       y="185.93242"
       transform="matrix(0.99144486,0.13052619,-0.13052619,0.99144486,0,0)" />
    <path
       style="fill:#808000;fill-opacity:0.37037036;stroke:none"
       d="M 581.59375 186.78125 L 581.59375 187.5625 C 581.39074 188.23088 581.05662 188.84964 580.5625 189.34375 C 579.84899 190.05725 578.85007 190.48831 577.84375 190.5625 C 577.36869 190.59753 576.91375 190.55258 576.4375 190.5625 C 575.24837 190.58727 574.06841 190.97737 573 191.5 C 571.93159 192.02263 570.94618 192.69731 569.96875 193.375 C 568.99132 194.05269 568.02661 194.73759 566.96875 195.28125 C 565.91089 195.82491 564.74972 196.20946 563.5625 196.28125 C 562.7303 196.33157 561.89393 196.21962 561.0625 196.28125 C 559.86173 196.37026 558.70301 196.82183 557.6875 197.46875 C 556.67199 198.11567 555.80085 198.97589 555 199.875 C 553.59585 201.45144 552.40825 203.23414 550.71875 204.5 C 549.37478 205.50697 547.73486 206.1281 546.0625 206.28125 L 536.5 281.46875 C 538.37379 286.4458 540.02554 291.52902 541.4375 296.65625 C 541.72916 297.71534 542.01605 298.78547 542.15625 299.875 C 542.3693 301.53059 542.25029 303.20841 542.15625 304.875 C 541.60609 314.62511 541.91841 324.40248 541.4375 334.15625 C 541.16725 339.63754 540.62303 345.08166 540.34375 350.5625 C 540.03469 356.62778 540.03645 362.70821 540 368.78125 C 539.98995 370.45618 539.96652 372.14932 540.34375 373.78125 C 540.83526 375.90756 541.98619 377.8174 543 379.75 C 544.01381 381.6826 544.93479 383.7561 545 385.9375 C 545.01779 386.53258 544.97 387.12416 545 387.71875 C 545.09791 389.659 546.04346 391.4978 547.3125 392.96875 C 548.58154 394.4397 550.1573 395.58997 551.78125 396.65625 C 559.43942 401.6846 568.33874 405.16297 577.5 405.21875 C 578.86952 405.22709 580.23174 405.14352 581.59375 405 L 581.59375 379.46875 L 602.875 379.46875 L 602.875 358.21875 L 581.59375 358.21875 L 581.59375 355.53125 C 580.80312 354.56223 579.92161 353.67804 578.9375 352.90625 C 578.51212 351.19512 578.13229 349.4582 577.84375 347.71875 C 577.56823 346.05779 577.38248 344.38714 577.15625 342.71875 C 576.91418 340.93355 576.65189 339.16374 576.4375 337.375 C 575.68531 331.09921 575.46515 324.75312 575.71875 318.4375 C 575.81916 315.93687 575.99264 313.42511 575.71875 310.9375 C 575.36825 307.75409 574.27307 304.66637 574.09375 301.46875 C 574.07707 301.17134 574.06824 300.85928 574.09375 300.5625 C 574.168 299.69867 574.53086 298.88537 575 298.15625 C 575.46914 297.42713 576.04482 296.79611 576.59375 296.125 C 578.34752 293.98087 579.87919 291.64349 581.59375 289.46875 L 581.59375 253.875 C 581.25156 253.42182 580.89386 252.96826 580.53125 252.53125 C 579.56844 250.99155 579.05654 249.19057 579.09375 247.375 C 579.1023 246.95806 579.13851 246.53962 579.09375 246.125 C 579.01261 245.37344 578.69866 244.66583 578.40625 243.96875 C 578.13666 243.32608 577.90013 242.6637 577.6875 242 C 577.48034 241.35339 577.29577 240.69574 577.15625 240.03125 C 576.59728 237.36905 576.83265 234.60931 577.34375 231.9375 C 577.85485 229.26569 578.61084 226.6458 579.09375 223.96875 C 579.30747 222.78398 579.49178 221.59885 579.65625 220.40625 C 580.22582 216.2763 580.85631 212.13456 581.59375 208.03125 L 602.875 208.03125 L 602.875 186.78125 L 581.59375 186.78125 z "
       id="rect4522" />
    <path
       style="fill:#808000;fill-opacity:0.37037036;stroke:none"
       inkscape:transform-center-x="40.797869"
       inkscape:transform-center-y="391.32979"
       d="m 777.65059,-35.772851 21.07796,2.774966 -100.6567,762.104845 -21.07796,-2.77497 z"
       id="path4563"
       inkscape:connector-curvature="0"
       sodipodi:nodetypes="ccccc" />
    <path
       style="fill:#808000;fill-opacity:0.37037036;stroke:none"
       d="m 546.82827,691.50539 c 4.58349,1.50452 9.51412,-0.98911 11.01865,-5.57262 0.3221,-0.98125 0.46798,-1.98795 0.44217,-2.96436 0.5485,0.8098 1.241,1.53725 2.07588,2.14767 3.89423,2.84728 9.36556,2.00011 12.21283,-1.89414 2.84726,-3.89425 1.99634,-9.35417 -1.89789,-12.20144 -0.83836,-0.61295 -1.75662,-1.05141 -2.69878,-1.32827 0.94508,-0.27112 1.86258,-0.7026 2.70566,-1.31127 3.9113,-2.8238 4.79216,-8.28507 1.96836,-12.19637 -2.82379,-3.9113 -8.28507,-4.79215 -12.19636,-1.96836 -0.8447,0.60984 -1.54266,1.34184 -2.09794,2.15541 0.0349,-0.98438 -0.0935,-1.98762 -0.41243,-2.97943 -1.47693,-4.59247 -6.39784,-7.11955 -10.9903,-5.64262 -4.59245,1.47693 -7.11956,6.39783 -5.64263,10.99029 0.31836,0.98992 0.80171,1.88123 1.40221,2.65968 -0.92291,-0.33536 -1.91099,-0.52266 -2.94953,-0.52577 -4.82409,-0.0145 -8.74529,3.87897 -8.75975,8.70309 -0.0146,4.82407 3.87896,8.74524 8.70308,8.75974 1.03367,0.003 2.02346,-0.17277 2.94485,-0.49962 -0.59953,0.77114 -1.07859,1.66847 -1.40069,2.64973 -1.50449,4.58351 0.98911,9.51413 5.57261,11.01866 z"
       id="path4569"
       inkscape:connector-curvature="0" />
    <path
       sodipodi:type="arc"
       style="fill:#808000;fill-opacity:0.37037036;stroke:none"
       id="path4630"
       sodipodi:cx="554.29169"
       sodipodi:cy="674.48718"
       sodipodi:rx="3.125"
       sodipodi:ry="3.2083333"
       d="m 557.41669,674.48718 a 3.125,3.2083333 0 1 1 -6.25,0 3.125,3.2083333 0 1 1 6.25,0 z"
       transform="matrix(0,1,-1,0,1229.5881,115.72714)" />
  </g>
</svg>
